<svg width="24" height="26" viewBox="0 0 24 26" fill="none" xmlns="http://www.w3.org/2000/svg">
<g opacity="0.5">
<path d="M23.9044 12.737C23.6175 9.56479 22.0875 6.729 19.7924 4.75836C19.7446 4.66223 19.6968 4.61417 19.649 4.51804C20.0315 3.65288 19.8881 2.54741 19.1709 1.73031C18.5971 1.05741 17.8321 0.6729 17.0193 0.6729C16.8759 0.6729 16.7324 0.6729 16.589 0.720964C16.1108 0.432578 15.5371 0.144193 14.9633 0.0480643C14.8677 0 14.7721 0 14.6764 0C13.768 0 12.4292 0.6729 11.8077 1.05741C11.1383 0.913221 10.5167 0.817093 9.84733 0.817093C7.50449 0.817093 5.68759 1.73031 4.58789 2.54741C1.86254 4.46998 0.332524 7.16158 0.0456455 10.5261C-0.0977938 12.2564 0.0934586 14.0828 0.667216 15.9573C0.667216 16.0054 0.715029 16.0535 0.715029 16.1015C1.81473 21.4847 6.54822 25.5221 12.238 25.5221C12.4292 25.5221 12.6205 25.5221 12.7639 25.5221H12.8117H12.9074C12.9552 25.5221 13.003 25.5221 13.0508 25.4741C14.4374 25.3779 15.7761 25.0415 16.9715 24.5128C21.0834 22.6863 24 18.5047 24 13.6983C23.9522 13.4099 23.9522 13.0735 23.9044 12.737ZM3.1535 17.5915C3.1535 17.3993 3.1535 17.2551 3.1535 17.0628V17.0148C3.1535 16.3419 3.29694 15.669 3.44037 14.9961C3.58381 14.8519 3.77507 14.6596 3.9185 14.4673C3.72725 15.717 3.77507 16.6783 3.77507 17.3031C3.58381 17.3993 3.39256 17.4954 3.1535 17.5915ZM6.35697 18.9373C6.59604 19.1776 6.8351 19.418 7.12198 19.6583C7.36105 19.8986 7.64793 20.1389 7.88699 20.3793L7.98262 20.4754L8.12606 20.4273C8.79544 20.2351 9.51264 20.0428 10.182 19.8025C10.5167 19.7064 10.8514 19.5622 11.1861 19.418C11.5208 19.2738 11.8555 19.1296 12.1902 18.9854L12.2858 18.9373V18.8412C12.3336 18.5528 12.3814 18.2644 12.4292 17.976C12.477 17.6877 12.5249 17.3993 12.5249 17.0628C12.5727 16.7744 12.5727 16.486 12.5727 16.1496C12.5727 15.8612 12.6205 15.5728 12.5727 15.2364C12.5249 15.5248 12.477 15.8131 12.4292 16.1015C12.3814 16.3899 12.3336 16.6783 12.2858 16.9667C12.238 17.2551 12.1902 17.5435 12.0945 17.8318C12.0467 18.0722 11.9989 18.3606 11.9511 18.6009C11.6642 18.7451 11.3295 18.8412 11.0427 18.9373C10.708 19.0335 10.3733 19.1776 10.0386 19.2738C9.41701 19.466 8.74763 19.6583 8.12606 19.8025C7.88699 19.6102 7.69574 19.418 7.45667 19.1776C7.21761 18.9373 6.93073 18.697 6.69166 18.4567C6.64385 18.4086 6.54822 18.3125 6.50041 18.2644C6.54822 18.2164 6.59604 18.1683 6.64385 18.1202C6.69166 18.0722 6.73948 17.976 6.78729 17.928C7.16979 18.4567 7.60011 18.5528 7.83918 18.5528C8.12606 18.5528 8.41294 18.4567 8.652 18.2164C8.93888 17.976 9.13013 17.5915 9.08232 17.207C9.08232 17.0628 9.0345 16.9186 8.98669 16.8225C9.13013 16.7264 9.22576 16.5822 9.27357 16.3899C9.41701 16.0054 9.46482 15.4767 9.13013 15.1402C8.89107 14.8999 8.60419 14.8038 8.17387 14.7077C8.03043 14.6596 7.79136 14.6115 7.69574 14.5635C7.69574 14.5635 7.60011 14.4673 7.50449 14.3232C7.5523 14.1309 7.64793 13.8425 7.88699 13.3138C8.17387 12.689 8.36512 12.0641 8.36512 11.4874C8.55637 11.4393 8.74763 11.3912 8.84325 11.3432C9.56045 11.9199 11.4252 13.5541 12.5727 14.5635C12.7161 14.7077 12.9074 14.8519 13.003 14.948C12.9552 16.0535 12.7161 17.6396 12.4292 19.0335C10.8036 19.8025 9.17794 20.2831 7.83918 20.6196C7.40886 20.2831 6.50041 19.418 5.68759 18.6009C5.78322 18.6009 5.87884 18.5528 5.97447 18.5047C6.21353 18.7451 6.26135 18.8412 6.35697 18.9373ZM9.84733 8.84383C9.94295 8.89189 10.0864 8.93995 10.182 8.93995C10.1342 9.22834 10.0386 9.46866 9.99077 9.75705C9.94295 10.0454 9.84733 10.3338 9.84733 10.6222V10.6703L9.89514 10.7183C10.2298 11.0067 10.5167 11.247 10.8514 11.5354L11.8077 12.3525C12.0945 12.6409 12.4292 12.9293 12.7639 13.1696C13.0986 13.458 13.3855 13.7464 13.7202 13.9867L13.768 14.0348H13.8636C14.1983 13.9386 14.533 13.8425 14.8199 13.7944C15.1546 13.6983 15.4415 13.6022 15.7761 13.5061C16.1108 13.4099 16.3977 13.3138 16.7324 13.1696C17.0671 13.0735 17.354 12.9293 17.6887 12.8332L17.7365 12.7851V12.737C17.7843 12.4006 17.8799 12.0641 17.8799 11.7277C17.9277 11.3912 17.9756 11.0548 17.9756 10.7183C17.9756 10.3819 18.0234 10.0454 18.0234 9.70898C18.0234 9.37253 18.0234 9.03608 18.0234 8.69963C18.0234 9.03608 17.9756 9.37253 17.9277 9.70898C17.8799 10.0454 17.8321 10.3819 17.8321 10.7183C17.7843 11.0548 17.7365 11.3912 17.6887 11.7277C17.6409 12.0161 17.593 12.3525 17.4974 12.6409C17.2105 12.737 16.9237 12.8332 16.6368 12.9293C16.3021 13.0254 16.0152 13.1215 15.6805 13.2177C15.059 13.4099 14.4852 13.5541 13.8636 13.6983C13.5767 13.458 13.2899 13.1696 13.003 12.9293C12.6683 12.6409 12.3814 12.3525 12.0467 12.1122L11.0905 11.2951C10.8036 11.0548 10.4689 10.7664 10.182 10.5261C10.2298 10.2858 10.2298 9.99737 10.2776 9.75705C10.3255 9.46866 10.3733 9.22834 10.4211 8.93995C10.6601 8.98802 10.8992 9.03608 11.1861 9.08415C11.473 9.13221 11.9033 9.18028 12.0945 9.2764C12.1902 9.4206 12.238 9.51673 12.238 9.56479C12.238 9.66092 12.1902 9.90124 12.1902 10.0454C12.1424 10.478 12.0945 10.7664 12.238 11.1028C12.4292 11.5354 12.9552 11.7277 13.3377 11.7277C13.5289 11.7277 13.6724 11.6796 13.8158 11.6316C14.0549 11.8719 14.3418 11.968 14.6764 11.968C14.8677 11.968 15.059 11.9199 15.2502 11.8238C15.5849 11.6796 15.824 11.3912 15.9196 11.0548C15.9674 10.8145 16.0152 10.4299 15.7283 9.99737C15.824 9.99737 15.9196 9.99737 15.9674 9.9493C16.6846 9.75705 16.9715 9.18028 16.8759 8.69963C16.828 8.41125 16.6846 8.17093 16.4455 7.9306C16.9237 7.97867 17.4018 8.02673 17.7843 8.0748C17.9277 8.0748 18.0712 8.0748 18.1668 8.12286C18.3102 8.26705 18.4537 8.41125 18.5493 8.50738C18.5493 9.66092 18.4059 11.7277 18.0712 13.1696C17.0193 13.6022 14.5808 14.3232 13.7202 14.5154C13.5767 14.4193 13.4333 14.2751 13.2899 14.1309C12.0945 13.0735 10.3255 11.4874 9.56045 10.8625C9.60826 10.2858 9.7517 9.56479 9.89514 8.84383H9.84733ZM4.92258 13.6022C4.97039 13.6983 4.97039 13.7944 5.01821 13.9867C5.01821 14.0348 5.01821 14.0828 5.06602 14.179C5.06602 14.2751 5.11383 14.3232 5.11383 14.4193V14.5154C4.97039 14.5635 4.82695 14.6115 4.73133 14.7077C4.73133 14.3712 4.82695 14.0348 4.92258 13.6022ZM8.36512 22.9267C8.2695 22.446 8.22168 21.8692 8.22168 21.4847C9.56045 21.1483 11.1861 20.6676 12.8117 19.8986C13.5767 20.5715 15.0111 21.3886 16.828 21.677C16.7802 22.398 16.6368 23.2631 16.4455 23.936C15.298 24.4167 14.1027 24.705 12.8117 24.8012C10.9948 24.3686 9.46482 23.5515 8.36512 22.9267ZM17.4018 23.4554C17.5452 22.8305 17.6409 22.1096 17.6409 21.5328C18.6449 20.7638 20.175 18.8412 20.6053 17.7357C21.2747 17.6877 21.9919 17.5435 22.5656 17.3512C21.6572 19.9467 19.7924 22.1576 17.4018 23.4554ZM22.8525 16.3419C22.3265 16.5822 21.4659 16.8225 20.6053 16.9186C20.3184 15.7651 19.7446 14.3232 18.7406 13.3138C19.1231 11.8238 19.2187 9.80511 19.2665 8.69963C20.0793 8.65157 20.5096 8.60351 20.7009 8.60351C21.2268 9.18028 22.47 10.7183 23.0916 12.8812C23.1394 13.1696 23.1394 13.5061 23.1394 13.7944C23.1394 14.6596 23.0437 15.5248 22.8525 16.3419ZM0.715029 11.8719C0.715029 11.5354 0.715029 11.199 0.715029 10.8145C0.810655 9.46866 1.09753 8.02673 1.86254 6.58481C2.24505 5.91191 2.67537 5.23901 3.29694 4.61417L3.34475 4.56611C3.39256 4.51804 3.44037 4.42191 3.536 4.37385C3.58381 4.32578 3.63163 4.27772 3.67944 4.22966L3.72725 4.18159L3.82288 4.13353C3.91851 4.0374 4.01413 3.98933 4.10976 3.89321C4.15757 3.79708 4.2532 3.74901 4.30101 3.70095L4.39664 3.60482L4.44445 3.55676L4.54007 3.46063C4.58789 3.41256 4.6357 3.3645 4.68351 3.31643C4.77914 3.22031 4.87477 3.17224 4.97039 3.12418C6.73948 1.92257 9.22576 1.10548 11.9511 1.82644C12.5249 1.44193 14.1505 0.576771 14.8677 0.720964C15.4893 0.817093 16.1587 1.20161 16.5412 1.48999C17.2105 1.20161 18.0712 1.44193 18.6927 2.16289C18.7406 2.21096 18.7884 2.25902 18.8362 2.35515L18.884 2.40321C18.9318 2.45128 18.9318 2.49934 18.9796 2.54741L19.0274 2.59547C19.0753 2.64354 19.0753 2.6916 19.1231 2.78773C19.1709 2.83579 19.1709 2.93192 19.1709 2.97998V3.02805C19.1709 3.07611 19.2187 3.12418 19.2187 3.22031V3.26837C19.1231 3.31643 19.1231 3.3645 19.1231 3.41256C19.1231 3.55676 19.1231 3.70095 19.1231 3.79708V3.84514V3.94127V3.98933C19.1231 4.0374 19.0753 4.08546 19.0753 4.13353L19.0274 4.22966L18.9796 4.32578V4.37385L18.9318 4.42191L18.8362 4.51804C19.2665 5.14288 19.8881 6.10416 19.8403 6.58481C19.7924 7.44996 18.4059 7.35383 17.8321 7.30577C17.7843 7.30577 17.6887 7.30577 17.593 7.30577C17.5452 7.30577 17.4974 7.30577 17.4018 7.30577H17.354H17.2584C17.1149 7.30577 16.9715 7.25771 16.828 7.25771C16.7802 7.25771 16.6846 7.25771 16.6368 7.25771C16.3499 7.20964 16.063 7.16158 15.824 7.16158C15.7761 7.16158 15.6805 7.16158 15.6327 7.11351C15.4415 7.06545 15.298 7.06545 15.1546 7.01738C15.059 7.01738 15.0111 6.96932 14.9155 6.96932C14.8677 6.96932 14.8199 6.96932 14.7721 6.92126H14.7243H14.6764C14.6286 6.92126 14.5808 6.87319 14.4852 6.87319C14.3418 6.82513 14.1505 6.77706 14.0071 6.77706C13.9114 6.729 13.8636 6.729 13.768 6.68093C13.6724 6.63287 13.6246 6.63287 13.5289 6.58481L13.4333 6.48868L13.3377 6.44061L13.2899 6.39255C13.2421 6.34448 13.1942 6.29642 13.1464 6.29642L13.0508 6.20029L12.9074 6.10416L12.8596 6.00803C12.7639 5.91191 12.7161 5.81578 12.6683 5.71965L12.6205 5.62352L12.5727 5.52739C12.5727 5.47933 12.5249 5.43126 12.5249 5.3832C12.5249 5.33513 12.477 5.28707 12.477 5.23901C12.477 5.19094 12.4292 5.14288 12.4292 5.09481L12.3814 4.95062V4.90256L12.3336 4.80643V4.75836C12.3336 4.7103 12.3336 4.66223 12.2858 4.56611V4.46998V4.37385V4.32578V4.27772V4.22966C12.2858 4.18159 12.2858 4.13353 12.2858 4.13353V4.18159V4.22966V4.27772C12.2858 4.32578 12.2858 4.37385 12.238 4.42191V4.46998V4.51804C12.238 4.56611 12.238 4.61417 12.1902 4.66223V4.7103V4.75836V4.80643V4.90256V4.99868C12.1902 5.14288 12.1902 5.28707 12.1902 5.3832C12.238 5.52739 12.2858 5.71965 12.3814 5.86384C12.477 6.0561 12.5727 6.20029 12.6205 6.29642V6.34448L11.6164 6.48868C11.6164 6.48868 12.4292 7.25771 12.7161 7.44996C13.003 7.64222 13.3855 7.73835 13.6724 7.4019C14.2939 6.68093 14.9155 7.11351 14.6764 7.49803C14.5808 7.59416 14.4852 7.69028 14.2939 7.78641C14.0549 7.93061 13.8636 8.0748 13.9114 8.17093C14.0071 8.26706 14.4374 8.41125 14.9633 8.21899C16.0152 7.83448 16.589 8.84383 15.7761 9.08415C15.3458 9.22834 14.4374 8.60351 14.2461 8.93995C14.2461 8.98802 14.1983 9.03608 14.2461 9.13221C14.3418 9.46866 14.8677 9.80511 15.1068 10.1416C15.3936 10.6222 15.1546 10.9106 14.9633 11.0067C14.6764 11.1509 14.2939 11.0067 14.1505 10.5741C14.1027 10.3819 14.1027 10.1896 14.0549 9.9493C14.0071 9.75705 13.8158 9.32447 13.7202 9.22834C13.6246 9.13221 13.4811 9.32447 13.5289 9.61285C13.5767 10.0454 13.768 10.4299 13.6246 10.6222C13.4811 10.9106 13.003 10.7664 12.9074 10.5741C12.8117 10.3819 13.003 9.66092 12.9552 9.2764C12.9552 9.03608 12.7639 8.7477 12.6205 8.55544L12.5727 8.50738L12.4292 8.69963H12.3814H12.3336H12.2858L12.1902 8.65157L12.0945 8.60351H12.0467C11.9989 8.60351 11.9511 8.6035 11.9033 8.55544H11.8555C11.8077 8.55544 11.7599 8.55544 11.712 8.50738C11.6642 8.50738 11.6164 8.50738 11.5686 8.45931H11.5208H11.4252H11.3295C11.2817 8.45931 11.1861 8.45931 11.1383 8.41125C10.8992 8.36318 10.6601 8.31512 10.4689 8.26706H10.3733C10.2776 8.21899 10.182 8.21899 10.0864 8.17093C10.0386 8.17093 9.94295 8.12286 9.89514 8.0748L9.84733 8.02673L9.79951 7.97867L9.7517 7.9306L9.65608 7.83448L9.60826 7.78641L9.56045 7.73835L9.51264 7.69028L9.46482 7.64222L9.41701 7.59416L9.3692 7.49803C9.3692 7.44996 9.32138 7.4019 9.32138 7.35383V7.30577C9.27357 7.20964 9.27357 7.11351 9.22576 7.06545V6.96932V6.92126V6.82513V6.729V6.68093V6.58481V6.48868V6.44061V6.24836V6.15223C9.22576 6.0561 9.22576 6.00803 9.22576 6.00803C8.46075 7.30577 9.41701 8.26706 9.41701 8.26706C8.12606 8.26706 6.73948 8.55544 5.7354 9.32447C5.63978 9.37253 5.11383 9.22834 4.34882 9.66092C5.20946 9.66092 6.4526 9.75705 7.31323 10.3819L7.40886 10.478L7.45667 10.5261L7.50449 10.5741L7.5523 10.6222L7.60011 10.7183V10.7664L7.64793 10.8145V10.8625C7.64793 10.9106 7.69574 10.9587 7.69574 11.0067V11.0548V11.1509V11.247V11.2951V11.3912V11.4874V11.5354C7.69574 11.6316 7.69574 11.6796 7.69574 11.7757V11.8238V11.9199V11.968C7.69574 12.0641 7.64793 12.1122 7.64793 12.2083C7.60011 12.3525 7.5523 12.4967 7.50449 12.689L7.45667 12.7851C7.40886 12.8812 7.36105 12.9774 7.31323 13.0735C6.8351 14.1309 6.8351 14.5154 6.8351 14.5154C6.8351 14.5635 6.88292 14.6115 6.93073 14.7077C7.02636 14.8999 7.21761 15.1883 7.45667 15.2844C7.79136 15.4767 8.50856 15.5728 8.652 15.717C8.79544 15.8612 8.69981 16.3899 8.41294 16.3899C8.17387 16.3899 7.88699 16.1015 7.50449 15.8612C7.21761 15.717 7.02636 15.7651 7.07417 15.8612C7.12198 16.0054 7.40886 16.3899 7.60011 16.486C7.79136 16.5822 7.98262 16.6783 8.12606 16.8225C8.46075 17.0628 8.46075 17.4954 8.22168 17.7357C8.03043 17.8799 7.69574 18.0241 7.36105 17.5435C7.12198 17.207 7.02636 16.5822 6.78729 16.3419C6.64385 16.3419 6.59604 16.3419 6.54822 16.3419C6.16572 16.3899 6.35697 17.4473 6.07009 17.7838L5.97447 17.8799L5.92665 17.928L5.87884 17.976H5.83103H5.78322H5.7354H5.68759C5.63978 17.976 5.59196 17.976 5.54415 17.976L5.44852 17.928L5.40071 17.8799L5.3529 17.8318V17.7838V17.7357V17.6877V17.6396V17.5435V17.4473V17.3512V17.3031V17.207C5.3529 17.1589 5.40071 17.1109 5.40071 17.0628V17.0148L5.49634 16.9186L5.54415 16.8706C5.59196 16.8225 5.59196 16.7744 5.63978 16.7264C6.02228 16.3419 6.11791 15.8612 6.02228 15.7651C5.97447 15.669 5.7354 15.8131 5.54415 15.9573L5.44852 16.0535H5.25727H5.20946H5.16165L5.06602 16.1015H5.01821H4.97039H4.92258H4.87477L4.77914 16.0535V16.0054V15.9573V15.9093V15.8612V15.8131L4.82695 15.7651L4.87477 15.717L4.92258 15.669L4.97039 15.6209L5.01821 15.5728L5.06602 15.5248C5.11383 15.4767 5.16164 15.4767 5.20946 15.4286L5.25727 15.3806C5.30508 15.3806 5.3529 15.3325 5.40071 15.3325C5.78322 15.1883 5.87884 14.8038 5.83103 14.4193C5.83103 14.3232 5.78322 14.227 5.78322 14.1309C5.78322 14.1309 5.78322 14.0828 5.78322 14.0348V13.9867V13.8906V13.8425V13.7464V13.6983C5.78322 13.6503 5.78322 13.6022 5.7354 13.5541C5.7354 13.5061 5.7354 13.458 5.68759 13.4099V13.3619L5.63978 13.2657L5.59196 13.1696L5.54415 13.1215L5.44852 12.9774L5.40071 12.9293C5.3529 12.8812 5.30508 12.8812 5.25727 12.8332H5.20946H5.16165H5.06602H4.97039H4.77914H4.73133C4.68351 12.8332 4.6357 12.8812 4.58789 12.9293C4.54008 12.9774 4.44445 13.0254 4.39664 13.0735L4.30101 13.1215C4.2532 13.1696 4.20538 13.2177 4.15757 13.2657L4.06194 13.3619L3.96632 13.458C3.82288 13.5541 3.72725 13.6983 3.58381 13.7944C3.44037 13.8906 3.34475 14.0348 3.20131 14.1309L3.10568 14.227C2.96224 14.3712 2.86662 14.4673 2.77099 14.6115C2.72318 14.7557 2.67536 14.948 2.62755 15.0922C2.62755 15.1402 2.57974 15.1883 2.57974 15.2844C2.53193 15.4286 2.53193 15.5248 2.53193 15.669C2.53193 15.717 2.53193 15.7651 2.53193 15.8131C2.48411 16.1496 2.4363 16.486 2.4363 16.8225V16.9186V17.0628C2.4363 17.1109 2.4363 17.1589 2.4363 17.207V17.4473C2.4363 17.5915 2.4363 17.6877 2.4363 17.8318V17.928V18.0241C2.4363 18.1683 2.48411 18.3125 2.48411 18.4567V18.5528C2.48411 18.697 2.53193 18.8893 2.57974 19.0335C2.57974 18.9854 2.38849 18.6489 2.24505 18.1683C2.19723 18.1202 2.19723 18.0241 2.14942 17.976L2.10161 17.8799C2.0538 17.8318 2.05379 17.7838 2.00598 17.6877V17.6396C1.95817 17.5435 1.91036 17.4473 1.86254 17.3031C1.81473 17.207 1.76692 17.1109 1.7191 17.0148C1.7191 16.9667 1.67129 16.9186 1.67129 16.8225L1.62348 16.7264V16.6783V16.6302V16.5822V16.5341V16.486V16.438C1.62348 16.3899 1.57566 16.3419 1.57566 16.2938L1.52785 16.1977V16.1496L1.43222 16.0054L1.38441 15.9093V15.8612C1.38441 15.7651 1.3366 15.669 1.28879 15.5248C1.28879 15.4767 1.24097 15.4286 1.24097 15.3806C1.19316 15.1883 1.14535 14.948 1.09753 14.7077C1.09753 14.6115 1.04972 14.5154 1.04972 14.4193C1.00191 14.227 1.00191 14.0348 0.954094 13.8425C0.954094 13.7464 0.906281 13.6983 0.906281 13.6022C0.906281 13.5541 0.906281 13.5061 0.906281 13.458C0.906281 13.4099 0.906281 13.3138 0.858468 13.2657C0.858468 13.1696 0.810655 13.0735 0.810655 12.9774C0.810655 12.9293 0.810655 12.8332 0.810655 12.7851C0.810655 12.737 0.810655 12.6409 0.810655 12.5448C0.810655 12.4486 0.810655 12.3525 0.810655 12.2564C0.762842 12.1122 0.715029 12.0161 0.715029 11.8719Z" fill="white"/>
<path d="M12.8597 24.4647C13.1465 24.4647 13.4334 24.4167 13.6725 24.3686C13.9594 24.3205 14.1984 24.2725 14.4853 24.2244C15.0113 24.0802 15.5372 23.888 16.0631 23.6476L16.111 23.5996V23.5515C16.1588 23.3112 16.2066 23.0709 16.2066 22.8305C16.2066 22.5902 16.2544 22.3499 16.2544 22.1096C16.2066 22.3499 16.1588 22.5902 16.0631 22.8305C16.0153 23.0228 15.9675 23.2631 15.8719 23.4554C15.3938 23.5996 14.8678 23.7438 14.3897 23.8399C14.1506 23.888 13.8637 23.936 13.5769 23.9841C13.3856 23.9841 13.1465 24.0322 12.8597 24.0322C12.525 23.936 12.1903 23.888 11.8556 23.7438C11.5209 23.6476 11.1862 23.5034 10.8515 23.4073C10.5168 23.3112 10.1821 23.167 9.84744 23.0228C9.51275 22.8786 9.22587 22.7344 8.89118 22.5902C8.84337 22.4941 8.84337 22.3499 8.79555 22.2538C8.74774 22.1096 8.74774 22.0135 8.74774 21.8693C8.74774 22.0135 8.74774 22.1096 8.74774 22.2538C8.74774 22.398 8.74774 22.4941 8.74774 22.6383V22.6864H8.79555C9.08243 22.8786 9.41712 23.0709 9.75182 23.2631C10.0865 23.4554 10.4212 23.5996 10.7559 23.7438C11.0906 23.888 11.4253 24.0322 11.8078 24.1283C12.1425 24.2244 12.525 24.3205 12.8597 24.4167V24.4647Z" fill="white"/>
<path d="M20.9401 19.2738C20.6532 19.6583 20.3663 20.0428 20.0794 20.4273C19.7926 20.8118 19.4579 21.1483 19.0754 21.4847C18.7885 21.7731 18.4538 22.0615 18.1191 22.3499C18.1191 22.3018 18.1191 22.2538 18.1191 22.1576C18.1191 22.0615 18.1191 21.9173 18.1191 21.8212C18.0713 21.9173 18.0713 22.0615 18.0235 22.1576C17.9757 22.2538 17.9757 22.398 17.9757 22.4941V22.5902L18.1191 22.4941C18.5494 22.2538 18.9319 21.9654 19.3144 21.677C19.6969 21.3405 20.0316 21.0041 20.3663 20.6196C20.701 20.2351 20.9401 19.8506 21.1791 19.418C21.4182 18.9854 21.6095 18.5528 21.7529 18.0722C21.466 18.4567 21.227 18.8893 20.9401 19.2738Z" fill="white"/>
<path d="M22.6135 12.9293C22.6135 13.1696 22.6135 13.458 22.6135 13.6983C22.6135 13.9386 22.5657 14.227 22.5657 14.4673C22.5179 14.7077 22.5179 14.996 22.4701 15.2364C22.4223 15.4767 22.3745 15.6689 22.3267 15.9093C22.1354 15.9573 21.8963 16.0535 21.7051 16.1015C21.5138 16.1496 21.3226 16.1977 21.1313 16.1977C21.0357 15.9573 20.9879 15.717 20.8923 15.4767C20.7966 15.1883 20.6532 14.8999 20.5098 14.6115C20.3663 14.3231 20.2229 14.0828 20.0316 13.7944C19.8882 13.5541 19.6969 13.3138 19.5057 13.1215C19.5535 12.8332 19.6013 12.4967 19.6491 12.2083C19.6969 11.8719 19.7448 11.5354 19.7448 11.199C19.7926 10.8625 19.7926 10.5261 19.7926 10.1896C19.7926 9.85317 19.7926 9.51672 19.7926 9.18027C19.7448 9.51672 19.6969 9.85317 19.6969 10.1896C19.6491 10.5261 19.6013 10.8625 19.5535 11.199C19.5057 11.5354 19.4579 11.8719 19.4101 12.1603C19.3622 12.4967 19.2666 12.8332 19.2188 13.1215V13.2177L19.2666 13.2657C19.4579 13.5061 19.6013 13.7464 19.7926 13.9867C19.9838 14.227 20.0794 14.5154 20.2229 14.7557C20.3663 15.0441 20.462 15.2844 20.6054 15.5728C20.701 15.8612 20.7966 16.1496 20.8923 16.438L20.9401 16.5822H21.0835C21.3226 16.5341 21.5617 16.486 21.8007 16.438C22.0398 16.3899 22.2788 16.2938 22.5179 16.1977L22.6135 16.1496V16.1015C22.6614 15.8612 22.7092 15.5728 22.7092 15.3325C22.757 15.0922 22.757 14.8038 22.757 14.5635C22.757 14.3231 22.757 14.0348 22.757 13.7944C22.7092 13.458 22.6614 13.1696 22.6135 12.9293Z" fill="white"/>
<path d="M12.9075 4.56609C12.9075 4.71029 12.9553 4.85448 13.0031 4.99867C13.0988 5.28706 13.2422 5.52738 13.4813 5.71964C13.8159 6.05609 14.2463 6.24834 14.7722 6.24834C15.1069 6.24834 15.3938 6.15222 15.6807 6.00802C16.2544 5.67157 16.6369 5.0948 16.6369 4.37384C16.6369 3.36449 15.8241 2.49933 14.82 2.49933C14.4375 2.49933 14.1028 2.59546 13.7681 2.83578C13.29 3.17223 12.9553 3.749 12.9553 4.37384V4.4219C12.9075 4.51803 12.9075 4.56609 12.9075 4.56609ZM13.5291 4.32577C13.5291 3.65287 14.1028 3.12416 14.7722 3.12416C14.82 3.12416 14.8678 3.12416 14.9157 3.12416C15.5372 3.17223 16.0154 3.70094 16.0154 4.37384C16.0154 4.95061 15.585 5.47932 15.0591 5.57544C14.9635 5.57544 14.8678 5.62351 14.82 5.62351C14.6766 5.62351 14.581 5.62351 14.4375 5.57544C14.1028 5.47932 13.8159 5.23899 13.6725 4.90254C13.6247 4.75835 13.5769 4.61416 13.5769 4.46996V4.32577H13.5291Z" fill="white"/>
<path d="M14.1984 5.14287C14.4375 5.14287 14.6766 4.95061 14.6766 4.66222C14.6766 4.4219 14.4853 4.18158 14.1984 4.18158H14.1506C14.1028 4.18158 14.055 4.22964 14.0072 4.22964H13.9594H13.9116C13.8638 4.27771 13.8159 4.32577 13.7681 4.4219V4.46997V4.51803V4.56609V4.61416C13.7681 4.95061 13.9594 5.14287 14.1984 5.14287Z" fill="white"/>
<path d="M18.5972 6.72899C18.7407 6.72899 18.8841 6.5848 18.8841 6.44061C18.8841 6.29641 18.7407 6.15222 18.5972 6.15222C18.4538 6.15222 18.3103 6.29641 18.3103 6.44061C18.3103 6.63286 18.4538 6.72899 18.5972 6.72899Z" fill="white"/>
</g>
</svg>
