<svg width="26" height="25" viewBox="0 0 26 25" fill="none" xmlns="http://www.w3.org/2000/svg">
<path fill-rule="evenodd" clip-rule="evenodd" d="M14.7032 18.066C14.7032 16.225 16.1326 14.7959 17.8194 14.7959C19.5061 14.7959 20.9356 16.225 20.9356 18.066C20.9356 19.907 19.5061 21.3362 17.8194 21.3362C16.1326 21.3362 14.7032 19.907 14.7032 18.066ZM17.8194 12.7959C14.9595 12.7959 12.7032 15.1903 12.7032 18.066C12.7032 20.9417 14.9595 23.3362 17.8194 23.3362C19.1897 23.3362 20.4215 22.7864 21.3328 21.8974L23.4538 24.0977C23.8371 24.4953 24.4702 24.507 24.8678 24.1237C25.2654 23.7404 25.277 23.1073 24.8938 22.7097L22.6556 20.3878C22.6013 20.3315 22.5421 20.283 22.4792 20.2422C22.7728 19.5763 22.9356 18.8385 22.9356 18.066C22.9356 15.1903 20.6793 12.7959 17.8194 12.7959Z" fill="#C4C4C4"/>
<path fill-rule="evenodd" clip-rule="evenodd" d="M11.2091 12.9952H0V24.2043H11.2091V12.9952ZM9.71458 14.4897H1.49455V22.7098H9.71458V14.4897Z" fill="#C4C4C4"/>
<path fill-rule="evenodd" clip-rule="evenodd" d="M5.60456 11.2091C8.69987 11.2091 11.2091 8.69987 11.2091 5.60456C11.2091 2.50925 8.69987 0 5.60456 0C2.50925 0 0 2.50925 0 5.60456C0 8.69987 2.50925 11.2091 5.60456 11.2091ZM5.60457 9.96368C8.01204 9.96368 9.96368 8.01204 9.96368 5.60457C9.96368 3.19711 8.01204 1.24547 5.60457 1.24547C3.19711 1.24547 1.24547 3.19711 1.24547 5.60457C1.24547 8.01204 3.19711 9.96368 5.60457 9.96368Z" fill="#C4C4C4"/>
<path fill-rule="evenodd" clip-rule="evenodd" d="M25.0145 11.2091L18.5429 0L12.0714 11.2091H25.0145ZM22.8573 9.96366L18.5429 2.49091L14.2285 9.96366H22.8573Z" fill="#C4C4C4"/>
</svg>
