<svg width="21" height="27" viewBox="0 0 21 27" fill="none" xmlns="http://www.w3.org/2000/svg">
<path opacity="0.5" d="M12.3125 0.80957C12.3125 0.80957 13.2067 4.01165 13.2067 6.60957C13.2067 9.09874 11.5754 11.1167 9.08626 11.1167C6.58501 11.1167 4.70001 9.09874 4.70001 6.60957L4.73626 6.17457C2.29543 9.07457 0.833344 12.8325 0.833344 16.9167C0.833344 22.2575 5.15918 26.5833 10.5 26.5833C15.8408 26.5833 20.1667 22.2575 20.1667 16.9167C20.1667 10.4037 17.0371 4.59165 12.3125 0.80957ZM10.1496 22.9583C7.99876 22.9583 6.25876 21.2667 6.25876 19.1642C6.25876 17.2067 7.52751 15.8292 9.65418 15.3942C11.7929 14.9592 14.0042 13.9321 15.2367 12.2767C15.7079 13.8354 15.9496 15.4787 15.9496 17.1583C15.9496 20.3604 13.3517 22.9583 10.1496 22.9583Z" fill="white"/>
</svg>
