<svg width="41" height="29" viewBox="0 0 41 29" fill="none" xmlns="http://www.w3.org/2000/svg">
<path d="M10.4612 0.514648H4.42219L5.05788 1.53709L2.83298 13.6147H8.10917C8.61772 13.6147 9.0627 13.2313 9.12627 12.7201L9.88909 8.18297C9.95266 7.79956 9.88909 7.35224 9.76195 7.03272C10.0162 6.71321 10.2069 6.26589 10.3341 5.88248L11.0969 1.34538C11.224 0.898065 10.9062 0.514648 10.4612 0.514648ZM7.28278 11.6337H5.18502L5.8207 8.05517H7.91847C7.98203 8.05517 8.0456 8.11907 7.98204 8.18297L7.40992 11.5698C7.40992 11.6337 7.34635 11.6337 7.28278 11.6337ZM8.23631 6.07418H6.13855L6.77423 2.49563H8.872C8.93557 2.49563 8.99913 2.55954 8.93556 2.62344L8.36345 6.01028C8.36345 6.07418 8.29988 6.07418 8.23631 6.07418Z" fill="white"/>
<path d="M12.0504 0.514648L12.6861 1.53709L10.5883 13.6147H12.4954L13.2582 9.07761H15.4831L14.7203 13.6147H16.6909L18.8522 1.40929C18.9158 0.898065 18.598 0.514648 18.153 0.514648H12.0504ZM14.466 2.49563H16.5638C16.6273 2.49563 16.6909 2.55954 16.6273 2.62344L15.8009 7.16053H13.576L14.466 2.49563Z" fill="white"/>
<path d="M20.8865 11.6337H25.082L24.0649 13.6147H18.598L20.6958 1.53709L20.1237 0.514648H22.8571L20.8865 11.6337Z" fill="white"/>
<path d="M27.879 11.6337H32.011L31.0575 13.6147H25.527L27.6247 1.53709L27.0526 0.514648H29.7861L27.879 11.6337Z" fill="white"/>
<path d="M8.55414 16.2991L8.04559 19.0469L5.94783 19.6859L6.32924 17.5132C6.32924 17.4493 6.32924 17.3854 6.26567 17.3854H4.29504C4.23147 17.3854 4.1679 17.4493 4.1679 17.5132L2.57868 26.4596C2.57868 26.5235 2.57868 26.5874 2.64225 26.5874H4.61288C4.67645 26.5874 4.74002 26.5235 4.74002 26.4596L5.12143 24.223L4.29504 24.4786L4.61288 22.4976L7.53704 21.603L6.51994 27.6738C6.45637 28.185 5.94782 28.5684 5.50284 28.5684H1.1166C0.608052 28.5684 0.29021 28.185 0.417347 27.6738L2.38798 16.2991C2.45155 15.7879 2.9601 15.4044 3.40508 15.4044H7.79132C8.29987 15.4044 8.61771 15.7879 8.55414 16.2991Z" fill="white"/>
<path d="M12.3683 17.3849L11.7326 20.9635H14.2753L13.2582 22.9445H11.3512L10.7155 26.5869H14.911L13.9575 28.5679H8.427L10.5248 16.4903L9.95265 15.404H16.8816L15.8645 17.3849H12.3683Z" fill="white"/>
<path d="M24.3192 16.2986L23.8106 19.2381L21.7129 19.8771L22.1578 17.4488C22.1578 17.3849 22.1578 17.321 22.0943 17.321H20.1236C20.0601 17.321 19.9965 17.3849 19.9965 17.4488L18.4073 26.3952C18.4073 26.4591 18.4073 26.523 18.4709 26.523H20.4415C20.5051 26.523 20.5686 26.4591 20.5686 26.3952L21.0136 23.6474L22.9207 23.9669L22.285 27.6094C22.2214 28.1206 21.7129 28.504 21.2679 28.504H16.8816C16.3731 28.504 16.0553 28.1206 16.1824 27.6094L18.153 16.2347C18.2166 15.7235 18.7251 15.3401 19.1701 15.3401H23.5564C24.0649 15.404 24.3828 15.7874 24.3192 16.2986Z" fill="white"/>
<path d="M33.2824 15.404L29.214 21.2191L30.9939 28.5679H28.8961L27.6248 23.4557L27.0526 24.3503L26.2898 28.5679H24.3192L26.4805 16.4903L25.8448 15.404H28.5783L27.7519 20.1328L31.0575 15.404H33.2824Z" fill="white"/>
<path d="M39.9571 15.404H35.5708C35.0623 15.404 34.6173 15.7874 34.5537 16.2986L32.5195 27.6733C32.456 28.1845 32.7738 28.5679 33.2188 28.5679H37.605C38.1136 28.5679 38.5586 28.1845 38.6221 27.6733L40.5928 16.2986C40.7835 15.7874 40.4656 15.404 39.9571 15.404ZM36.7786 26.5869H34.808C34.7444 26.5869 34.6809 26.523 34.7444 26.4591L36.3337 17.5127C36.3337 17.4488 36.3972 17.3849 36.4608 17.3849H38.4314C38.495 17.3849 38.5586 17.4488 38.495 17.5127L36.9058 26.4591C36.9058 26.523 36.8422 26.5869 36.7786 26.5869Z" fill="white"/>
</svg>
