<svg width="213" height="93" viewBox="0 0 213 93" fill="none" xmlns="http://www.w3.org/2000/svg">
<path d="M86.2999 45.9834C85.2642 34.5309 79.7405 24.2931 71.455 17.1787C71.2823 16.8317 71.1097 16.6581 70.9371 16.3111C72.318 13.1877 71.8002 9.19668 69.211 6.2468C67.1396 3.81749 64.3777 2.42931 61.4433 2.42931C60.9254 2.42931 60.4076 2.42931 59.8897 2.60283C58.1636 1.5617 56.0922 0.520567 54.0208 0.173522C53.6756 0 53.3303 0 52.9851 0C49.7054 0 44.8722 2.42931 42.6282 3.81749C40.2116 3.29692 37.9676 2.94988 35.5509 2.94988C27.0928 2.94988 20.5334 6.2468 16.5633 9.19668C6.72418 16.1376 1.20048 25.8548 0.16479 38.0014C-0.353056 44.2482 0.337405 50.842 2.40879 57.6094C2.40879 57.7829 2.58141 57.9564 2.58141 58.13C6.55156 77.5645 23.6405 92.1403 44.1817 92.1403C44.8722 92.1403 45.5626 92.1403 46.0805 92.1403H46.2531H46.5983C46.771 92.1403 46.9436 92.1403 47.1162 91.9668C52.122 91.6198 56.9553 90.4051 61.2706 88.4964C76.1156 81.9025 86.6451 66.8061 86.6451 49.4538C86.4725 48.4127 86.4725 47.1981 86.2999 45.9834ZM11.3848 63.5092C11.3848 62.8151 11.3848 62.2945 11.3848 61.6004V61.4269C11.3848 58.9976 11.9026 56.5683 12.4205 54.139C12.9383 53.6184 13.6288 52.9243 14.1466 52.2302C13.4562 56.7418 13.6288 60.2122 13.6288 62.468C12.9383 62.8151 12.2479 63.1621 11.3848 63.5092ZM22.95 68.3678C23.8131 69.2354 24.6762 70.103 25.7119 70.9706C26.5749 71.8382 27.6106 72.7058 28.4737 73.5734L28.8189 73.9205L29.3368 73.747C31.7534 73.0529 34.3426 72.3588 36.7593 71.4912C37.9676 71.1441 39.1759 70.6236 40.3842 70.103C41.5925 69.5824 42.8008 69.0619 44.0091 68.5413L44.3543 68.3678V68.0207C44.527 66.9796 44.6996 65.9385 44.8722 64.8973C45.0448 63.8562 45.2174 62.8151 45.2174 61.6004C45.39 60.5593 45.39 59.5181 45.39 58.3035C45.39 57.2624 45.5626 56.2212 45.39 55.0066C45.2174 56.0477 45.0448 57.0888 44.8722 58.13C44.6996 59.1711 44.527 60.2122 44.3543 61.2534C44.1817 62.2945 44.0091 63.3356 43.6639 64.3768C43.4913 65.2444 43.3186 66.2855 43.146 67.1531C42.1103 67.6737 40.902 68.0207 39.8663 68.3678C38.658 68.7148 37.4497 69.2354 36.2414 69.5824C33.9974 70.2765 31.5808 70.9706 29.3368 71.4912C28.4737 70.7971 27.7833 70.103 26.9202 69.2354C26.0571 68.3678 25.0214 67.5002 24.1583 66.6326C23.9857 66.459 23.6405 66.112 23.4679 65.9385C23.6405 65.7649 23.8131 65.5914 23.9857 65.4179C24.1583 65.2444 24.3309 64.8973 24.5036 64.7238C25.8845 66.6326 27.438 66.9796 28.3011 66.9796C29.3368 66.9796 30.3725 66.6326 31.2356 65.7649C32.2713 64.8973 32.9617 63.5092 32.7891 62.121C32.7891 61.6004 32.6165 61.0798 32.4439 60.7328C32.9617 60.3858 33.3069 59.8652 33.4796 59.1711C33.9974 57.7829 34.17 55.8742 32.9617 54.6595C32.0986 53.7919 31.0629 53.4449 29.5094 53.0978C28.9916 52.9243 28.1285 52.7508 27.7833 52.5773C27.7833 52.5773 27.438 52.2302 27.0928 51.7096C27.2654 51.0155 27.6106 49.9744 28.4737 48.0657C29.5094 45.8099 30.1999 43.5541 30.1999 41.4718C30.8903 41.2983 31.5808 41.1248 31.926 40.9513C34.5153 43.0335 41.2473 48.9333 45.39 52.5773C45.9079 53.0978 46.5983 53.6184 46.9436 53.9654C46.771 57.9564 45.9079 63.6827 44.8722 68.7148C39.0033 71.4912 33.1343 73.2264 28.3011 74.4411C26.7476 73.2264 23.4679 70.103 20.5334 67.1531C20.8786 67.1531 21.2239 66.9796 21.5691 66.8061C22.4322 67.6737 22.6048 68.0207 22.95 68.3678ZM35.5509 31.9281C35.8962 32.1016 36.414 32.2751 36.7593 32.2751C36.5866 33.3163 36.2414 34.1839 36.0688 35.225C35.8962 36.2662 35.5509 37.3073 35.5509 38.3484V38.5219L35.7236 38.6955C36.9319 39.7366 37.9676 40.6042 39.1759 41.6453L42.6282 44.5952C43.6639 45.6364 44.8722 46.6775 46.0805 47.5451C47.2888 48.5862 48.3245 49.6274 49.5328 50.495L49.7054 50.6685H50.0506C51.2589 50.3215 52.4673 49.9744 53.503 49.8009C54.7113 49.4538 55.747 49.1068 56.9553 48.7598C58.1636 48.4127 59.1993 48.0657 60.4076 47.5451C61.6159 47.1981 62.6516 46.6775 63.8599 46.3305L64.0325 46.1569V45.9834C64.2051 44.7687 64.5503 43.5541 64.5503 42.3394C64.723 41.1248 64.8956 39.9101 64.8956 38.6955C64.8956 37.4808 65.0682 36.2662 65.0682 35.0515C65.0682 33.8368 65.0682 32.6222 65.0682 31.4075C65.0682 32.6222 64.8956 33.8368 64.723 35.0515C64.5503 36.2662 64.3777 37.4808 64.3777 38.6955C64.2051 39.9101 64.0325 41.1248 63.8599 42.3394C63.6873 43.3806 63.5146 44.5952 63.1694 45.6364C62.1337 45.9834 61.098 46.3304 60.0623 46.6775C58.854 47.0245 57.8183 47.3716 56.61 47.7186C54.366 48.4127 52.2946 48.9333 50.0506 49.4538C49.0149 48.5862 47.9793 47.5451 46.9436 46.6775C45.7353 45.6364 44.6996 44.5952 43.4913 43.7276L40.039 40.7777C39.0033 39.9101 37.7949 38.869 36.7593 38.0014C36.9319 37.1338 36.9319 36.0926 37.1045 35.225C37.2771 34.1839 37.4497 33.3163 37.6223 32.2751C38.4854 32.4487 39.3485 32.6222 40.3842 32.7957C41.4199 32.9692 42.9734 33.1428 43.6639 33.4898C44.0091 34.0104 44.1817 34.3574 44.1817 34.5309C44.1817 34.878 44.0091 35.7456 44.0091 36.2662C43.8365 37.8279 43.6639 38.869 44.1817 40.0836C44.8722 41.6453 46.771 42.3394 48.1519 42.3394C48.8423 42.3394 49.3602 42.1659 49.878 41.9924C50.7411 42.86 51.7768 43.207 52.9851 43.207C53.6756 43.207 54.366 43.0335 55.0565 42.6865C56.2648 42.1659 57.1279 41.1248 57.4731 39.9101C57.6457 39.0425 57.8183 37.6543 56.7826 36.0926C57.1279 36.0926 57.4731 36.0926 57.6457 35.9191C60.235 35.225 61.2706 33.1428 60.9254 31.4075C60.7528 30.3664 60.235 29.4988 59.3719 28.6312C61.098 28.8047 62.8242 28.9782 64.2051 29.1517C64.723 29.1517 65.2408 29.1517 65.586 29.3253C66.1039 29.8458 66.6217 30.3664 66.967 30.7134C66.967 34.878 66.4491 42.3394 65.2408 47.5451C61.4433 49.1068 52.6399 51.7096 49.5328 52.4037C49.0149 52.0567 48.4971 51.5361 47.9793 51.0155C43.6639 47.1981 37.2771 41.4718 34.5153 39.216C34.6879 37.1338 35.2057 34.5309 35.7236 31.9281H35.5509ZM17.7716 49.1068C17.9442 49.4538 17.9442 49.8009 18.1168 50.495C18.1168 50.6685 18.1168 50.842 18.2894 51.1891C18.2894 51.5361 18.462 51.7096 18.462 52.0567V52.4037C17.9442 52.5773 17.4263 52.7508 17.0811 53.0978C17.0811 51.8832 17.4263 50.6685 17.7716 49.1068ZM30.1999 82.7701C29.8546 81.0349 29.682 78.9526 29.682 77.5645C34.5153 76.3498 40.3842 74.6146 46.2531 71.8382C49.0149 74.2675 54.1934 77.2174 60.7528 78.2585C60.5802 80.8614 60.0623 83.9848 59.3719 86.4141C55.2291 88.1493 50.9137 89.1905 46.2531 89.5375C39.6937 87.9758 34.17 85.0259 30.1999 82.7701ZM62.8242 84.6789C63.342 82.4231 63.6873 79.8203 63.6873 77.738C67.3122 74.9616 72.8359 68.0207 74.3894 64.0297C76.806 63.8562 79.3953 63.3356 81.4667 62.6415C78.187 72.0117 71.455 79.9938 62.8242 84.6789ZM82.5023 58.9976C80.6036 59.8652 77.4965 60.7328 74.3894 61.0798C73.3537 56.9153 71.2823 51.7096 67.6574 48.0657C69.0383 42.6865 69.3836 35.3985 69.5562 31.4075C72.4906 31.234 74.0442 31.0605 74.7346 31.0605C76.6334 33.1428 81.1214 38.6955 83.3654 46.504C83.538 47.5451 83.538 48.7598 83.538 49.8009C83.538 52.9243 83.1928 56.0477 82.5023 58.9976ZM2.58141 42.86C2.58141 41.6453 2.58141 40.4307 2.58141 39.0425C2.92664 34.1839 3.96233 28.9782 6.72418 23.7726C8.1051 21.3432 9.65864 18.9139 11.9026 16.6581L12.0753 16.4846C12.2479 16.3111 12.4205 15.9641 12.7657 15.7905C12.9383 15.617 13.1109 15.4435 13.2836 15.27L13.4562 15.0964L13.8014 14.9229C14.1466 14.5759 14.4919 14.4024 14.8371 14.0553C15.0097 13.7083 15.3549 13.5347 15.5276 13.3612L15.8728 13.0142L16.0454 12.8406L16.3906 12.4936C16.5633 12.3201 16.7359 12.1466 16.9085 11.973C17.2537 11.626 17.5989 11.4525 17.9442 11.2789C24.3309 6.94089 33.3069 3.99101 43.146 6.59385C45.2174 5.20567 51.0863 2.08227 53.6756 2.60283C55.9196 2.94988 58.3362 4.33806 59.7171 5.37919C62.1337 4.33806 65.2408 5.20567 67.4848 7.8085C67.6574 7.98203 67.83 8.15555 68.0026 8.50259L68.1753 8.67611C68.3479 8.84964 68.3479 9.02316 68.5205 9.19668L68.6931 9.3702C68.8657 9.54373 68.8657 9.71725 69.0383 10.0643C69.211 10.2378 69.211 10.5849 69.211 10.7584V10.9319C69.211 11.1054 69.3836 11.2789 69.3836 11.626V11.7995C69.0383 11.973 69.0383 12.1466 69.0383 12.3201C69.0383 12.8406 69.0383 13.3612 69.0383 13.7083V13.8818V14.2288V14.4023C69.0383 14.5759 68.8657 14.7494 68.8657 14.9229L68.6931 15.27L68.5205 15.617V15.7905L68.3479 15.964L68.0026 16.3111C69.5562 18.5669 71.8002 22.0373 71.6276 23.7726C71.455 26.896 66.4491 26.5489 64.3777 26.3754C64.2051 26.3754 63.8599 26.3754 63.5146 26.3754C63.342 26.3754 63.1694 26.3754 62.8242 26.3754H62.6516H62.3063C61.7885 26.3754 61.2706 26.2019 60.7528 26.2019C60.5802 26.2019 60.235 26.2019 60.0623 26.2019C59.0266 26.0283 57.991 25.8548 57.1279 25.8548C56.9553 25.8548 56.61 25.8548 56.4374 25.6813C55.747 25.5078 55.2291 25.5078 54.7113 25.3343C54.366 25.3343 54.1934 25.1607 53.8482 25.1607C53.6756 25.1607 53.5029 25.1607 53.3303 24.9872H53.1577H52.9851C52.8125 24.9872 52.6399 24.8137 52.2946 24.8137C51.7768 24.6402 51.0863 24.4666 50.5685 24.4666C50.2233 24.2931 50.0506 24.2931 49.7054 24.1196C49.3602 23.9461 49.1876 23.9461 48.8423 23.7726L48.4971 23.4255L48.1519 23.252L47.9793 23.0785C47.8066 22.9049 47.634 22.7314 47.4614 22.7314L47.1162 22.3844L46.5983 22.0373L46.4257 21.6903C46.0805 21.3432 45.9079 20.9962 45.7353 20.6492L45.5626 20.3021L45.39 19.9551C45.39 19.7815 45.2174 19.608 45.2174 19.4345C45.2174 19.261 45.0448 19.0875 45.0448 18.9139C45.0448 18.7404 44.8722 18.5669 44.8722 18.3934L44.6996 17.8728V17.6993L44.5269 17.3522V17.1787C44.5269 17.0052 44.527 16.8317 44.3543 16.4846V16.1376V15.7905V15.617V15.4435V15.27C44.3543 15.0964 44.3543 14.9229 44.3543 14.9229V15.0964V15.27V15.4435C44.3543 15.617 44.3543 15.7905 44.1817 15.964V16.1376V16.3111C44.1817 16.4846 44.1817 16.6581 44.0091 16.8317V17.0052V17.1787V17.3522V17.6993V18.0463C44.0091 18.5669 44.0091 19.0875 44.0091 19.4345C44.1817 19.9551 44.3543 20.6492 44.6996 21.1697C45.0448 21.8638 45.39 22.3844 45.5626 22.7314V22.9049L41.9377 23.4255C41.9377 23.4255 44.8722 26.2019 45.9079 26.896C46.9436 27.59 48.3245 27.9371 49.3602 26.7224C51.6042 24.1196 53.8482 25.6813 52.9851 27.0695C52.6399 27.4165 52.2946 27.7636 51.6042 28.1106C50.7411 28.6312 50.0506 29.1517 50.2233 29.4988C50.5685 29.8458 52.122 30.3664 54.0208 29.6723C57.8183 28.2841 59.8897 31.9281 56.9553 32.7957C55.4017 33.3163 52.122 31.0605 51.4316 32.2751C51.4316 32.4487 51.2589 32.6222 51.4316 32.9692C51.7768 34.1839 53.6756 35.3985 54.5386 36.6132C55.5743 38.3484 54.7113 39.3896 54.0208 39.7366C52.9851 40.2572 51.6042 39.7366 51.0863 38.1749C50.9137 37.4808 50.9137 36.7867 50.7411 35.9191C50.5685 35.225 49.878 33.6633 49.5328 33.3163C49.1876 32.9692 48.6697 33.6633 48.8423 34.7045C49.0149 36.2662 49.7054 37.6543 49.1876 38.3484C48.6697 39.3896 46.9436 38.869 46.5983 38.1749C46.2531 37.4808 46.9436 34.878 46.771 33.4898C46.771 32.6222 46.0805 31.5811 45.5626 30.887L45.39 30.7134L44.8722 31.4075H44.6996H44.5269H44.3543L44.0091 31.234L43.6639 31.0605H43.4913C43.3186 31.0605 43.146 31.0605 42.9734 30.887H42.8008C42.6282 30.887 42.4556 30.887 42.2829 30.7134C42.1103 30.7134 41.9377 30.7134 41.7651 30.5399H41.5925H41.2473H40.902C40.7294 30.5399 40.3842 30.5399 40.2116 30.3664C39.3485 30.1929 38.4854 30.0194 37.7949 29.8458H37.4497C37.1045 29.6723 36.7593 29.6723 36.414 29.4988C36.2414 29.4988 35.8962 29.3253 35.7236 29.1517L35.5509 28.9782L35.3783 28.8047L35.2057 28.6312L34.8605 28.2841L34.6879 28.1106L34.5153 27.9371L34.3426 27.7636L34.17 27.59L33.9974 27.4165L33.8248 27.0695C33.8248 26.896 33.6522 26.7224 33.6522 26.5489V26.3754C33.4796 26.0283 33.4796 25.6813 33.3069 25.5078V25.1607V24.9872V24.6402V24.2931V24.1196V23.7726V23.4255V23.252V22.5579V22.2109C33.3069 21.8638 33.3069 21.6903 33.3069 21.6903C30.5451 26.3754 33.9974 29.8458 33.9974 29.8458C29.3368 29.8458 24.3309 30.887 20.706 33.6633C20.3608 33.8368 18.462 33.3163 15.7002 34.878C18.8073 34.878 23.2953 35.225 26.4023 37.4808L26.7476 37.8279L26.9202 38.0014L27.0928 38.1749L27.2654 38.3484L27.438 38.6955V38.869L27.6106 39.0425V39.216C27.6106 39.3896 27.7833 39.5631 27.7833 39.7366V39.9101V40.2572V40.6042V40.7777V41.1248V41.4718V41.6453C27.7833 41.9924 27.7833 42.1659 27.7833 42.513V42.6865V43.0335V43.207C27.7833 43.5541 27.6106 43.7276 27.6106 44.0747C27.438 44.5952 27.2654 45.1158 27.0928 45.8099L26.9202 46.1569C26.7476 46.504 26.5749 46.851 26.4023 47.1981C24.6762 51.0156 24.6762 52.4037 24.6762 52.4037C24.6762 52.5773 24.8488 52.7508 25.0214 53.0978C25.3666 53.7919 26.0571 54.833 26.9202 55.1801C28.1285 55.8742 30.7177 56.2212 31.2356 56.7418C31.7534 57.2624 31.4082 59.1711 30.3725 59.1711C29.5094 59.1711 28.4737 58.13 27.0928 57.2624C26.0571 56.7418 25.3666 56.9153 25.5393 57.2624C25.7119 57.7829 26.7476 59.1711 27.438 59.5181C28.1285 59.8652 28.8189 60.2122 29.3368 60.7328C30.5451 61.6004 30.5451 63.1621 29.682 64.0297C28.9916 64.5503 27.7833 65.0709 26.5749 63.3356C25.7119 62.121 25.3666 59.8652 24.5036 58.9976C23.9857 58.9976 23.8131 58.9976 23.6405 58.9976C22.2596 59.1711 22.95 62.9886 21.9143 64.2032L21.5691 64.5503L21.3965 64.7238L21.2239 64.8973H21.0513H20.8786H20.706H20.5334C20.3608 64.8973 20.1882 64.8973 20.0156 64.8973L19.6703 64.7238L19.4977 64.5503L19.3251 64.3768V64.2032V64.0297V63.8562V63.6827V63.3356V62.9886V62.6415V62.468V62.121C19.3251 61.9475 19.4977 61.7739 19.4977 61.6004V61.4269L19.8429 61.0798L20.0156 60.9063C20.1882 60.7328 20.1882 60.5593 20.3608 60.3858C21.7417 58.9976 22.0869 57.2624 21.7417 56.9153C21.5691 56.5683 20.706 57.0888 20.0156 57.6094L19.6703 57.9564H18.9799H18.8073H18.6346L18.2894 58.13H18.1168H17.9442H17.7716H17.5989L17.2537 57.9564V57.7829V57.6094V57.4359V57.2624V57.0888L17.4263 56.9153L17.5989 56.7418L17.7716 56.5683L17.9442 56.3947L18.1168 56.2212L18.2894 56.0477C18.462 55.8742 18.6346 55.8742 18.8073 55.7006L18.9799 55.5271C19.1525 55.5271 19.3251 55.3536 19.4977 55.3536C20.8786 54.833 21.2239 53.4449 21.0513 52.0567C21.0513 51.7096 20.8786 51.3626 20.8786 51.0155C20.8786 51.0155 20.8786 50.842 20.8786 50.6685V50.495V50.1479V49.9744V49.6274V49.4538C20.8786 49.2803 20.8786 49.1068 20.706 48.9333C20.706 48.7598 20.706 48.5862 20.5334 48.4127V48.2392L20.3608 47.8922L20.1882 47.5451L20.0156 47.3716L19.6703 46.851L19.4977 46.6775C19.3251 46.504 19.1525 46.504 18.9799 46.3305H18.8073H18.6346H18.2894H17.9442H17.2537H17.0811C16.9085 46.3305 16.7359 46.504 16.5633 46.6775C16.3906 46.851 16.0454 47.0245 15.8728 47.1981L15.5276 47.3716C15.3549 47.5451 15.1823 47.7186 15.0097 47.8922L14.6645 48.2392L14.3193 48.5862C13.8014 48.9333 13.4562 49.4538 12.9383 49.8009C12.4205 50.1479 12.0753 50.6685 11.5574 51.0155L11.2122 51.3626C10.6943 51.8832 10.3491 52.2302 10.0039 52.7508C9.83125 53.2713 9.65864 53.9654 9.48602 54.486C9.48602 54.6595 9.31341 54.833 9.31341 55.1801C9.14079 55.7006 9.14079 56.0477 9.14079 56.5683C9.14079 56.7418 9.14079 56.9153 9.14079 57.0888C8.96818 58.3035 8.79556 59.5181 8.79556 60.7328V61.0798V61.6004C8.79556 61.7739 8.79556 61.9475 8.79556 62.121V62.9886C8.79556 63.5092 8.79556 63.8562 8.79556 64.3768V64.7238V65.0709C8.79556 65.5914 8.96818 66.112 8.96818 66.6326V66.9796C8.96818 67.5002 9.14079 68.1943 9.31341 68.7148C9.31341 68.5413 8.62294 67.3266 8.1051 65.5914C7.93248 65.4179 7.93248 65.0709 7.75987 64.8973L7.58725 64.5503C7.41464 64.3768 7.41464 64.2032 7.24202 63.8562V63.6827C7.06941 63.3356 6.89679 62.9886 6.72418 62.468C6.55156 62.121 6.37894 61.7739 6.20633 61.4269C6.20633 61.2534 6.03371 61.0798 6.03371 60.7328L5.8611 60.3858V60.2122V60.0387V59.8652V59.6917V59.5181V59.3446C5.8611 59.1711 5.68848 58.9976 5.68848 58.8241L5.51587 58.477V58.3035L5.17064 57.7829L4.99802 57.4359V57.2624C4.99802 56.9153 4.82541 56.5683 4.65279 56.0477C4.65279 55.8742 4.48018 55.7007 4.48018 55.5271C4.30756 54.833 4.13494 53.9654 3.96233 53.0978C3.96233 52.7508 3.78971 52.4037 3.78971 52.0567C3.6171 51.3626 3.6171 50.6685 3.44448 49.9744C3.44448 49.6274 3.27187 49.4538 3.27187 49.1068C3.27187 48.9333 3.27187 48.7598 3.27187 48.5862C3.27187 48.4127 3.27187 48.0657 3.09925 47.8922C3.09925 47.5451 2.92664 47.1981 2.92664 46.851C2.92664 46.6775 2.92664 46.3304 2.92664 46.1569C2.92664 45.9834 2.92664 45.6364 2.92664 45.2893C2.92664 44.9423 2.92664 44.5952 2.92664 44.2482C2.75402 43.7276 2.58141 43.3806 2.58141 42.86Z" fill="white"/>
<path d="M46.4263 88.3229C47.4619 88.3229 48.4976 88.1494 49.3607 87.9759C50.3964 87.8023 51.2595 87.6288 52.2952 87.4553C54.1939 86.9347 56.0927 86.2406 57.9915 85.373L58.1641 85.1995V85.026C58.3367 84.1584 58.5093 83.2908 58.5093 82.4231C58.5093 81.5555 58.6819 80.6879 58.6819 79.8203C58.5093 80.6879 58.3367 81.5555 57.9915 82.4231C57.8189 83.1172 57.6463 83.9848 57.301 84.6789C55.5749 85.1995 53.6761 85.7201 51.9499 86.0671C51.0869 86.2406 50.0512 86.4142 49.0155 86.5877C48.325 86.5877 47.4619 86.7612 46.4263 86.7612C45.2179 86.4141 44.0096 86.2406 42.8013 85.7201C41.593 85.373 40.3847 84.8525 39.1764 84.5054C37.9681 84.1584 36.7598 83.6378 35.5515 83.1172C34.3432 82.5967 33.3075 82.0761 32.0992 81.5555C31.9266 81.2085 31.9266 80.6879 31.7539 80.3409C31.5813 79.8203 31.5813 79.4733 31.5813 78.9527C31.5813 79.4733 31.5813 79.8203 31.5813 80.3409C31.5813 80.8614 31.5813 81.2085 31.5813 81.729V81.9026H31.7539C32.7896 82.5967 33.9979 83.2908 35.2063 83.9848C36.4146 84.6789 37.6229 85.1995 38.8312 85.7201C40.0395 86.2406 41.2478 86.7612 42.6287 87.1082C43.837 87.4553 45.2179 87.8023 46.4263 88.1494V88.3229Z" fill="white"/>
<path d="M75.5982 69.5824C74.5625 70.9706 73.5268 72.3588 72.4911 73.747C71.4554 75.1352 70.2471 76.3498 68.8662 77.5645C67.8305 78.6056 66.6222 79.6467 65.4139 80.6879C65.4139 80.5143 65.4139 80.3408 65.4139 79.9938C65.4139 79.6467 65.4139 79.1262 65.4139 78.7791C65.2413 79.1262 65.2413 79.6467 65.0686 79.9938C64.896 80.3408 64.896 80.8614 64.896 81.2084V81.5555L65.4139 81.2084C66.9674 80.3408 68.3483 79.2997 69.7293 78.2585C71.1102 77.0439 72.3185 75.8292 73.5268 74.4411C74.7351 73.0529 75.5982 71.6647 76.4613 70.103C77.3243 68.5413 78.0148 66.9796 78.5327 65.2444C77.497 66.6326 76.6339 68.1943 75.5982 69.5824Z" fill="white"/>
<path d="M81.6397 46.6775C81.6397 47.5451 81.6397 48.5862 81.6397 49.4539C81.6397 50.3215 81.4671 51.3626 81.4671 52.2302C81.2945 53.0978 81.2945 54.139 81.1219 55.0066C80.9493 55.8742 80.7767 56.5683 80.604 57.4359C79.9136 57.6094 79.0505 57.9565 78.36 58.13C77.6696 58.3035 76.9791 58.477 76.2886 58.477C75.9434 57.6094 75.7708 56.7418 75.4256 55.8742C75.0803 54.8331 74.5625 53.7919 74.0447 52.7508C73.5268 51.7096 73.009 50.842 72.3185 49.8009C71.8007 48.9333 71.1102 48.0657 70.4197 47.3716C70.5923 46.3305 70.765 45.1158 70.9376 44.0747C71.1102 42.86 71.2828 41.6454 71.2828 40.4307C71.4554 39.216 71.4554 38.0014 71.4554 36.7867C71.4554 35.5721 71.4554 34.3574 71.4554 33.1428C71.2828 34.3574 71.1102 35.5721 71.1102 36.7867C70.9376 38.0014 70.765 39.216 70.5923 40.4307C70.4197 41.6454 70.2471 42.86 70.0745 43.9011C69.9019 45.1158 69.5566 46.3305 69.384 47.3716V47.7186L69.5566 47.8922C70.2471 48.7598 70.765 49.6274 71.4554 50.495C72.1459 51.3626 72.4911 52.4037 73.009 53.2714C73.5268 54.3125 73.872 55.1801 74.3899 56.2212C74.7351 57.2624 75.0803 58.3035 75.4256 59.3446L75.5982 59.8652H76.116C76.9791 59.6917 77.8422 59.5182 78.7053 59.3446C79.5683 59.1711 80.4314 58.8241 81.2945 58.477L81.6397 58.3035V58.13C81.8123 57.2624 81.985 56.2212 81.985 55.3536C82.1576 54.486 82.1576 53.4449 82.1576 52.5773C82.1576 51.7096 82.1576 50.6685 82.1576 49.8009C81.985 48.5862 81.8123 47.5451 81.6397 46.6775Z" fill="white"/>
<path d="M46.5988 16.4846C46.5988 17.0052 46.7714 17.5257 46.944 18.0463C47.2893 19.0874 47.8071 19.955 48.6702 20.6491C49.8785 21.8638 51.432 22.5579 53.3308 22.5579C54.5391 22.5579 55.5748 22.2108 56.6105 21.6903C58.6819 20.4756 60.0628 18.3933 60.0628 15.7905C60.0628 12.1465 57.1284 9.02313 53.5034 9.02313C52.1225 9.02313 50.9142 9.37018 49.7059 10.2378C47.9797 11.4524 46.7714 13.5347 46.7714 15.7905V15.964C46.5988 16.3111 46.5988 16.4846 46.5988 16.4846ZM48.8428 15.617C48.8428 13.1877 50.9142 11.2789 53.3308 11.2789C53.5034 11.2789 53.676 11.2789 53.8487 11.2789C56.0927 11.4524 57.8188 13.3612 57.8188 15.7905C57.8188 17.8728 56.2653 19.7815 54.3665 20.1286C54.0213 20.1286 53.676 20.3021 53.5034 20.3021C52.9856 20.3021 52.6404 20.3021 52.1225 20.1286C50.9142 19.7815 49.8785 18.9139 49.3607 17.6993C49.188 17.1787 49.0154 16.6581 49.0154 16.1375V15.617H48.8428Z" fill="white"/>
<path d="M51.2594 18.5669C52.1224 18.5669 52.9855 17.8728 52.9855 16.8317C52.9855 15.964 52.295 15.0964 51.2594 15.0964H51.0867C50.9141 15.0964 50.7415 15.27 50.5689 15.27H50.3963H50.2237C50.051 15.4435 49.8784 15.617 49.7058 15.964V16.1376V16.3111V16.4846V16.6581C49.7058 17.8728 50.3963 18.5669 51.2594 18.5669Z" fill="white"/>
<path d="M67.14 24.2931C67.6578 24.2931 68.1757 23.7725 68.1757 23.2519C68.1757 22.7314 67.6578 22.2108 67.14 22.2108C66.6221 22.2108 66.1043 22.7314 66.1043 23.2519C66.1043 23.946 66.6221 24.2931 67.14 24.2931Z" fill="white"/>
<path d="M115.3 9.54376H98.9013L100.627 12.3201L94.586 45.1158H108.913C110.294 45.1158 111.502 44.0747 111.675 42.6865L113.746 30.3664C113.919 29.3253 113.746 28.1107 113.401 27.243C114.091 26.3754 114.609 25.1608 114.955 24.1196L117.026 11.7996C117.371 10.5849 116.508 9.54376 115.3 9.54376ZM106.669 39.7366H100.973L102.699 30.0194H108.395C108.568 30.0194 108.74 30.1929 108.568 30.3664L107.014 39.5631C107.014 39.7366 106.842 39.7366 106.669 39.7366ZM109.258 24.6402H103.562L105.288 14.923H110.984C111.157 14.923 111.33 15.0965 111.157 15.27L109.603 24.4667C109.603 24.6402 109.431 24.6402 109.258 24.6402Z" fill="white"/>
<path d="M119.615 9.54376L121.341 12.3201L115.645 45.1158H120.823L122.895 32.7958H128.936L126.865 45.1158H132.216L138.085 11.9731C138.258 10.5849 137.394 9.54376 136.186 9.54376H119.615ZM126.174 14.923H131.871C132.043 14.923 132.216 15.0965 132.043 15.27L129.799 27.5901H123.758L126.174 14.923Z" fill="white"/>
<path d="M143.609 39.7366H155.001L152.239 45.1158H137.395L143.091 12.3201L141.537 9.54376H148.96L143.609 39.7366Z" fill="white"/>
<path d="M162.596 39.7366H173.816L171.227 45.1158H156.21L161.906 12.3201L160.352 9.54376H167.775L162.596 39.7366Z" fill="white"/>
<path d="M110.121 52.4051L108.74 59.8666L103.044 61.6018L104.08 55.7021C104.08 55.5285 104.08 55.355 103.907 55.355H98.556C98.3834 55.355 98.2108 55.5285 98.2108 55.7021L93.8954 79.9952C93.8954 80.1687 93.8954 80.3422 94.068 80.3422H99.4191C99.5917 80.3422 99.7643 80.1687 99.7643 79.9952L100.8 73.9219L98.556 74.616L99.4191 69.2368L107.359 66.8075L104.598 83.2921C104.425 84.6803 103.044 85.7214 101.836 85.7214H89.9252C88.5443 85.7214 87.6812 84.6803 88.0265 83.2921L93.3775 52.4051C93.5502 51.017 94.9311 49.9758 96.1394 49.9758H108.05C109.431 49.9758 110.294 51.017 110.121 52.4051Z" fill="white"/>
<path d="M120.478 55.3536L118.752 65.0709H125.657L122.895 70.4501H117.716L115.99 80.3408H127.383L124.794 85.72H109.776L115.472 52.9243L113.919 49.9744H132.734L129.972 55.3536H120.478Z" fill="white"/>
<path d="M152.93 52.4038L151.549 60.3858L145.853 62.121L147.061 55.5272C147.061 55.3537 147.061 55.1802 146.888 55.1802H141.537C141.365 55.1802 141.192 55.3537 141.192 55.5272L136.877 79.8203C136.877 79.9938 136.877 80.1674 137.049 80.1674H142.4C142.573 80.1674 142.746 79.9938 142.746 79.8203L143.954 72.3589L149.132 73.2265L147.406 83.1172C147.234 84.5054 145.853 85.5465 144.644 85.5465H132.734C131.353 85.5465 130.49 84.5054 130.835 83.1172L136.186 52.2303C136.359 50.8421 137.74 49.801 138.948 49.801H150.858C152.239 49.9745 153.102 51.0156 152.93 52.4038Z" fill="white"/>
<path d="M177.269 49.9744L166.221 65.765L171.054 85.72H165.358L161.906 71.8382L160.352 74.2675L158.281 85.72H152.93L158.799 52.9243L157.073 49.9744H164.495L162.251 62.8151L171.227 49.9744H177.269Z" fill="white"/>
<path d="M195.393 49.9744H183.483C182.102 49.9744 180.894 51.0156 180.721 52.4037L175.197 83.2907C175.025 84.6789 175.888 85.72 177.096 85.72H189.007C190.387 85.72 191.596 84.6789 191.768 83.2907L197.119 52.4037C197.637 51.0156 196.774 49.9744 195.393 49.9744ZM186.763 80.3408H181.411C181.239 80.3408 181.066 80.1673 181.239 79.9938L185.554 55.7007C185.554 55.5271 185.727 55.3536 185.899 55.3536H191.251C191.423 55.3536 191.596 55.5271 191.423 55.7007L187.108 79.9938C187.108 80.1673 186.935 80.3408 186.763 80.3408Z" fill="white"/>
<path d="M204.714 50.842V55.3536H203.334V50.842H201.607V49.6273H206.441V50.842H204.714Z" fill="white"/>
<path d="M211.619 55.3536V51.7096L210.238 54.833H209.375L207.994 51.7096V55.3536H206.786V49.6273H208.339L209.893 52.9242L211.446 49.6273H213V55.3536H211.619Z" fill="white"/>
</svg>
