<svg width="79" height="34" viewBox="0 0 79 34" fill="none" xmlns="http://www.w3.org/2000/svg">
<path d="M31.7815 16.9342C31.4001 12.7166 29.3659 8.94637 26.3146 6.32637C26.251 6.19856 26.1874 6.13466 26.1239 6.00685C26.6324 4.8566 26.4417 3.38684 25.4882 2.3005C24.7253 1.40586 23.7082 0.894638 22.6276 0.894638C22.4369 0.894638 22.2462 0.894638 22.0555 0.95854C21.4198 0.575124 20.6569 0.191708 19.8941 0.0639027C19.767 0 19.6399 0 19.5127 0C18.3049 0 16.525 0.894638 15.6986 1.40586C14.8086 1.21415 13.9822 1.08635 13.0923 1.08635C9.97741 1.08635 7.56179 2.3005 6.09971 3.38684C2.4763 5.94295 0.442099 9.5215 0.0606868 13.9947C-0.130019 16.2952 0.124256 18.7235 0.88708 21.2157C0.88708 21.2796 0.950649 21.3435 0.950649 21.4074C2.41273 28.5645 8.70603 33.9323 16.2707 33.9323C16.525 33.9323 16.7793 33.9323 16.97 33.9323H17.0335H17.1607C17.2242 33.9323 17.2878 33.9323 17.3514 33.8684C19.1949 33.7406 20.9748 33.2933 22.564 32.5904C28.0309 30.1621 31.9086 24.6025 31.9086 18.2123C31.845 17.8288 31.845 17.3815 31.7815 16.9342ZM4.19265 23.3884C4.19265 23.1328 4.19265 22.9411 4.19265 22.6855V22.6215C4.19265 21.7269 4.38336 20.8323 4.57407 19.9376C4.76477 19.7459 5.01905 19.4903 5.20975 19.2347C4.95548 20.8962 5.01905 22.1742 5.01905 23.005C4.76477 23.1328 4.5105 23.2606 4.19265 23.3884ZM8.45176 25.1777C8.7696 25.4972 9.08744 25.8167 9.46886 26.1362C9.7867 26.4557 10.1681 26.7752 10.486 27.0947L10.6131 27.2225L10.8038 27.1586C11.6938 26.903 12.6473 26.6474 13.5373 26.3279C13.9822 26.2001 14.4272 26.0084 14.8722 25.8167C15.3172 25.625 15.7622 25.4333 16.2071 25.2416L16.3343 25.1777V25.0499C16.3978 24.6664 16.4614 24.283 16.525 23.8996C16.5886 23.5162 16.6521 23.1328 16.6521 22.6855C16.7157 22.302 16.7157 21.9186 16.7157 21.4713C16.7157 21.0879 16.7793 20.7045 16.7157 20.2572C16.6521 20.6406 16.5886 21.024 16.525 21.4074C16.4614 21.7908 16.3978 22.1742 16.3343 22.5576C16.2707 22.9411 16.2071 23.3245 16.08 23.7079C16.0164 24.0274 15.9529 24.4108 15.8893 24.7303C15.5079 24.922 15.0629 25.0499 14.6815 25.1777C14.2365 25.3055 13.7915 25.4972 13.3465 25.625C12.5202 25.8806 11.6302 26.1362 10.8038 26.3279C10.486 26.0723 10.2317 25.8167 9.91384 25.4972C9.59599 25.1777 9.21458 24.8581 8.89674 24.5386C8.83317 24.4747 8.70603 24.3469 8.64246 24.283C8.70603 24.2191 8.7696 24.1552 8.83317 24.0913C8.89674 24.0274 8.96031 23.8996 9.02388 23.8357C9.53242 24.5386 10.1045 24.6664 10.4224 24.6664C10.8038 24.6664 11.1852 24.5386 11.5031 24.2191C11.8845 23.8996 12.1387 23.3884 12.0752 22.8772C12.0752 22.6855 12.0116 22.4937 11.948 22.3659C12.1387 22.2381 12.2659 22.0464 12.3294 21.7908C12.5202 21.2796 12.5837 20.5767 12.1387 20.1293C11.8209 19.8098 11.4395 19.682 10.8674 19.5542C10.6767 19.4903 10.3588 19.4264 10.2317 19.3625C10.2317 19.3625 10.1045 19.2347 9.97741 19.043C10.041 18.7874 10.1681 18.404 10.486 17.701C10.8674 16.8703 11.1216 16.0396 11.1216 15.2727C11.3759 15.2088 11.6302 15.1449 11.7573 15.081C12.7109 15.8479 15.19 18.0206 16.7157 19.3625C16.9064 19.5542 17.1607 19.7459 17.2878 19.8737C17.2242 21.3435 16.9064 23.4523 16.525 25.3055C14.3636 26.3279 12.2023 26.9669 10.4224 27.4143C9.85027 26.9669 8.64246 25.8167 7.56179 24.7303C7.68893 24.7303 7.81607 24.6664 7.94321 24.6025C8.26105 24.922 8.32462 25.0499 8.45176 25.1777ZM13.0923 11.7581C13.2194 11.822 13.4101 11.8859 13.5373 11.8859C13.4737 12.2693 13.3465 12.5888 13.283 12.9722C13.2194 13.3557 13.0923 13.7391 13.0923 14.1225V14.1864L13.1558 14.2503C13.6008 14.6337 13.9822 14.9532 14.4272 15.3366L15.6986 16.423C16.08 16.8064 16.525 17.1898 16.97 17.5093C17.4149 17.8928 17.7964 18.2762 18.2413 18.5957L18.3049 18.6596H18.432C18.877 18.5318 19.322 18.404 19.7034 18.3401C20.1484 18.2123 20.5298 18.0845 20.9748 17.9567C21.4198 17.8288 21.8012 17.701 22.2462 17.5093C22.6911 17.3815 23.0726 17.1898 23.5175 17.062L23.5811 16.9981V16.9342C23.6447 16.4869 23.7718 16.0396 23.7718 15.5923C23.8354 15.1449 23.899 14.6976 23.899 14.2503C23.899 13.803 23.9625 13.3557 23.9625 12.9083C23.9625 12.461 23.9625 12.0137 23.9625 11.5664C23.9625 12.0137 23.899 12.461 23.8354 12.9083C23.7718 13.3557 23.7082 13.803 23.7082 14.2503C23.6447 14.6976 23.5811 15.1449 23.5175 15.5923C23.454 15.9757 23.3904 16.423 23.2633 16.8064C22.8819 16.9342 22.5004 17.062 22.119 17.1898C21.674 17.3176 21.2926 17.4454 20.8477 17.5732C20.0213 17.8288 19.2584 18.0206 18.432 18.2123C18.0506 17.8928 17.6692 17.5093 17.2878 17.1898C16.8428 16.8064 16.4614 16.423 16.0164 16.1035L14.7451 15.0171C14.3636 14.6976 13.9187 14.3142 13.5373 13.9947C13.6008 13.6752 13.6008 13.2918 13.6644 12.9722C13.728 12.5888 13.7915 12.2693 13.8551 11.8859C14.1729 11.9498 14.4908 12.0137 14.8722 12.0776C15.2536 12.1415 15.8257 12.2054 16.08 12.3332C16.2071 12.5249 16.2707 12.6527 16.2707 12.7166C16.2707 12.8444 16.2071 13.164 16.2071 13.3557C16.1436 13.9308 16.08 14.3142 16.2707 14.7615C16.525 15.3366 17.2242 15.5923 17.7328 15.5923C17.9871 15.5923 18.1778 15.5284 18.3685 15.4644C18.6863 15.784 19.0677 15.9118 19.5127 15.9118C19.767 15.9118 20.0213 15.8479 20.2755 15.7201C20.7205 15.5284 21.0384 15.1449 21.1655 14.6976C21.2291 14.3781 21.2926 13.8669 20.9112 13.2918C21.0384 13.2918 21.1655 13.2918 21.2291 13.2279C22.1826 12.9722 22.564 12.2054 22.4369 11.5664C22.3733 11.183 22.1826 10.8635 21.8648 10.5439C22.5004 10.6078 23.1361 10.6717 23.6447 10.7357C23.8354 10.7357 24.0261 10.7357 24.1532 10.7996C24.3439 10.9913 24.5346 11.183 24.6618 11.3108C24.6618 12.8444 24.4711 15.5923 24.0261 17.5093C22.6276 18.0845 19.3856 19.043 18.2413 19.2986C18.0506 19.1708 17.8599 18.9791 17.6692 18.7874C16.08 17.3815 13.728 15.2727 12.7109 14.442C12.7744 13.6752 12.9651 12.7166 13.1558 11.7581H13.0923ZM6.5447 18.0845C6.60826 18.2123 6.60826 18.3401 6.67183 18.5957C6.67183 18.6596 6.67183 18.7235 6.7354 18.8513C6.7354 18.9791 6.79897 19.043 6.79897 19.1708V19.2986C6.60826 19.3625 6.41756 19.4264 6.29042 19.5542C6.29042 19.1069 6.41756 18.6596 6.5447 18.0845ZM11.1216 30.4816C10.9945 29.8426 10.9309 29.0757 10.9309 28.5645C12.7109 28.1172 14.8722 27.4782 17.0335 26.4557C18.0506 27.3503 19.9577 28.4367 22.3733 28.8201C22.3097 29.7786 22.119 30.9289 21.8648 31.8235C20.3391 32.4626 18.7499 32.846 17.0335 32.9738C14.6179 32.3987 12.5837 31.3123 11.1216 30.4816ZM23.1361 31.1845C23.3268 30.3538 23.454 29.3952 23.454 28.6284C24.7889 27.606 26.8231 25.0499 27.3952 23.5801C28.2852 23.5162 29.2387 23.3245 30.0016 23.0689C28.7937 26.5196 26.3146 29.4591 23.1361 31.1845ZM30.383 21.7269C29.6837 22.0464 28.5395 22.3659 27.3952 22.4937C27.0138 20.9601 26.251 19.043 24.9161 17.701C25.4246 15.7201 25.5517 13.0361 25.6153 11.5664C26.696 11.5025 27.2681 11.4386 27.5224 11.4386C28.2216 12.2054 29.8744 14.2503 30.7008 17.1259C30.7644 17.5093 30.7644 17.9567 30.7644 18.3401C30.7644 19.4903 30.6372 20.6406 30.383 21.7269ZM0.950649 15.784C0.950649 15.3366 0.950649 14.8893 0.950649 14.3781C1.07779 12.5888 1.4592 10.6717 2.4763 8.75467C2.98485 7.86003 3.55697 6.96539 4.38336 6.13466L4.44693 6.07076C4.5105 6.00685 4.57407 5.87905 4.7012 5.81514C4.76477 5.75124 4.82834 5.68734 4.89191 5.62344L4.95548 5.55953L5.08262 5.49563C5.20975 5.36783 5.33689 5.30392 5.46403 5.17612C5.5276 5.04831 5.65473 4.98441 5.7183 4.92051L5.84544 4.7927L5.90901 4.7288L6.03615 4.60099C6.09971 4.53709 6.16328 4.47319 6.22685 4.40929C6.35399 4.28148 6.48113 4.21758 6.60826 4.15367C8.96031 2.55611 12.2659 1.46976 15.8893 2.4283C16.6521 1.91708 18.8135 0.766832 19.767 0.95854C20.5934 1.08635 21.4833 1.59757 21.9919 1.98098C22.8819 1.59757 24.0261 1.91708 24.8525 2.87562C24.9161 2.93952 24.9796 3.00343 25.0432 3.13123L25.1068 3.19513C25.1703 3.25904 25.1703 3.32294 25.2339 3.38684L25.2975 3.45074C25.361 3.51465 25.361 3.57855 25.4246 3.70636C25.4882 3.77026 25.4882 3.89806 25.4882 3.96197V4.02587C25.4882 4.08977 25.5517 4.15367 25.5517 4.28148V4.34538C25.4246 4.40929 25.4246 4.47319 25.4246 4.53709C25.4246 4.7288 25.4246 4.92051 25.4246 5.04831V5.11221V5.24002V5.30392C25.4246 5.36783 25.361 5.43173 25.361 5.49563L25.2975 5.62344L25.2339 5.75124V5.81514L25.1703 5.87905L25.0432 6.00685C25.6153 6.83759 26.4417 8.11564 26.3781 8.75467C26.3146 9.90492 24.4711 9.77711 23.7082 9.71321C23.6447 9.71321 23.5175 9.71321 23.3904 9.71321C23.3268 9.71321 23.2633 9.71321 23.1361 9.71321H23.0726H22.9454C22.7547 9.71321 22.564 9.64931 22.3733 9.64931C22.3097 9.64931 22.1826 9.64931 22.119 9.64931C21.7376 9.5854 21.3562 9.5215 21.0384 9.5215C20.9748 9.5215 20.8477 9.5215 20.7841 9.4576C20.5298 9.39369 20.3391 9.39369 20.1484 9.32979C20.0213 9.32979 19.9577 9.26589 19.8306 9.26589C19.767 9.26589 19.7034 9.26589 19.6398 9.20199H19.5763H19.5127C19.4491 9.20199 19.3856 9.13808 19.2584 9.13808C19.0677 9.07418 18.8135 9.01028 18.6227 9.01028C18.4956 8.94638 18.432 8.94637 18.3049 8.88247C18.1778 8.81857 18.1142 8.81857 17.9871 8.75467L17.8599 8.62686L17.7328 8.56296L17.6692 8.49906C17.6056 8.43515 17.5421 8.37125 17.4785 8.37125L17.3514 8.24345L17.1607 8.11564L17.0971 7.98784C16.97 7.86003 16.9064 7.73222 16.8428 7.60442L16.7793 7.47661L16.7157 7.34881C16.7157 7.28491 16.6521 7.221 16.6521 7.1571C16.6521 7.0932 16.5886 7.02929 16.5886 6.96539C16.5886 6.90149 16.525 6.83759 16.525 6.77368L16.4614 6.58198V6.51807L16.3978 6.39027V6.32637C16.3978 6.26246 16.3978 6.19856 16.3343 6.07076V5.94295V5.81514V5.75124V5.68734V5.62344C16.3343 5.55953 16.3343 5.49563 16.3343 5.49563V5.55953V5.62344V5.68734C16.3343 5.75124 16.3343 5.81514 16.2707 5.87905V5.94295V6.00685C16.2707 6.07075 16.2707 6.13466 16.2071 6.19856V6.26246V6.32637V6.39027V6.51807V6.64588C16.2071 6.83759 16.2071 7.02929 16.2071 7.1571C16.2707 7.34881 16.3343 7.60442 16.4614 7.79613C16.5886 8.05174 16.7157 8.24345 16.7793 8.37125V8.43515L15.4443 8.62686C15.4443 8.62686 16.525 9.64931 16.9064 9.90492C17.2878 10.1605 17.7964 10.2883 18.1778 9.84101C19.0042 8.88247 19.8306 9.4576 19.5127 9.96882C19.3856 10.0966 19.2584 10.2244 19.0042 10.3522C18.6863 10.5439 18.432 10.7357 18.4956 10.8635C18.6228 10.9913 19.1949 11.183 19.8941 10.9274C21.2926 10.4161 22.0555 11.7581 20.9748 12.0776C20.4027 12.2693 19.1949 11.4386 18.9406 11.8859C18.9406 11.9498 18.877 12.0137 18.9406 12.1415C19.0677 12.5888 19.767 13.0361 20.0848 13.4835C20.4662 14.1225 20.1484 14.5059 19.8941 14.6337C19.5127 14.8254 19.0042 14.6337 18.8135 14.0586C18.7499 13.803 18.7499 13.5474 18.6863 13.2279C18.6227 12.9722 18.3685 12.3971 18.2413 12.2693C18.1142 12.1415 17.9235 12.3971 17.9871 12.7805C18.0506 13.3557 18.3049 13.8669 18.1142 14.1225C17.9235 14.5059 17.2878 14.3142 17.1607 14.0586C17.0335 13.803 17.2878 12.8444 17.2242 12.3332C17.2242 12.0137 16.97 11.6303 16.7793 11.3747L16.7157 11.3108L16.525 11.5664H16.4614H16.3978H16.3343L16.2071 11.5025L16.08 11.4386H16.0164C15.9529 11.4386 15.8893 11.4386 15.8257 11.3747H15.7622C15.6986 11.3747 15.635 11.3747 15.5715 11.3108C15.5079 11.3108 15.4443 11.3108 15.3807 11.2469H15.3172H15.19H15.0629C14.9993 11.2469 14.8722 11.2469 14.8086 11.183C14.4908 11.1191 14.1729 11.0552 13.9187 10.9913H13.7915C13.6644 10.9274 13.5373 10.9274 13.4101 10.8635C13.3465 10.8635 13.2194 10.7996 13.1558 10.7357L13.0923 10.6717L13.0287 10.6078L12.9651 10.5439L12.838 10.4161L12.7744 10.3522L12.7109 10.2883L12.6473 10.2244L12.5837 10.1605L12.5202 10.0966L12.4566 9.96882C12.4566 9.90492 12.393 9.84101 12.393 9.77711V9.71321C12.3294 9.5854 12.3294 9.4576 12.2659 9.39369V9.26589V9.20199V9.07418V8.94638V8.88247V8.75467V8.62686V8.56296V8.30735V8.17954C12.2659 8.05174 12.2659 7.98784 12.2659 7.98784C11.2488 9.71321 12.5202 10.9913 12.5202 10.9913C10.8038 10.9913 8.96031 11.3747 7.62536 12.3971C7.49823 12.461 6.79897 12.2693 5.78187 12.8444C6.92611 12.8444 8.57889 12.9722 9.72313 13.803L9.85027 13.9308L9.91384 13.9947L9.97741 14.0586L10.041 14.1225L10.1045 14.2503V14.3142L10.1681 14.3781V14.442C10.1681 14.5059 10.2317 14.5698 10.2317 14.6337V14.6976V14.8254V14.9532V15.0171V15.1449V15.2727V15.3366C10.2317 15.4644 10.2317 15.5284 10.2317 15.6562V15.7201V15.8479V15.9118C10.2317 16.0396 10.1681 16.1035 10.1681 16.2313C10.1045 16.423 10.041 16.6147 9.97741 16.8703L9.91384 16.9981C9.85027 17.1259 9.7867 17.2537 9.72313 17.3815C9.08744 18.7874 9.08744 19.2986 9.08744 19.2986C9.08744 19.3625 9.15101 19.4264 9.21458 19.5542C9.34172 19.8098 9.59599 20.1932 9.91384 20.3211C10.3588 20.5767 11.3123 20.7045 11.5031 20.8962C11.6938 21.0879 11.5666 21.7908 11.1852 21.7908C10.8674 21.7908 10.486 21.4074 9.97741 21.0879C9.59599 20.8962 9.34172 20.9601 9.40529 21.0879C9.46886 21.2796 9.85027 21.7908 10.1045 21.9186C10.3588 22.0464 10.6131 22.1742 10.8038 22.3659C11.2488 22.6855 11.2488 23.2606 10.9309 23.5801C10.6767 23.7718 10.2317 23.9635 9.7867 23.3245C9.46886 22.8772 9.34172 22.0464 9.02388 21.7269C8.83317 21.7269 8.7696 21.7269 8.70603 21.7269C8.19748 21.7908 8.45176 23.1967 8.07034 23.644L7.94321 23.7718L7.87964 23.8357L7.81607 23.8996H7.7525H7.68893H7.62536H7.56179C7.49823 23.8996 7.43466 23.8996 7.37109 23.8996L7.24395 23.8357L7.18038 23.7718L7.11681 23.7079V23.644V23.5801V23.5162V23.4523V23.3245V23.1967V23.0689V23.005V22.8772C7.11681 22.8133 7.18038 22.7494 7.18038 22.6855V22.6215L7.30752 22.4937L7.37109 22.4298C7.43466 22.3659 7.43466 22.302 7.49823 22.2381C8.00678 21.7269 8.13391 21.0879 8.00678 20.9601C7.94321 20.8323 7.62536 21.024 7.37109 21.2157L7.24395 21.3435H6.98968H6.92611H6.86254L6.7354 21.4074H6.67183H6.60826H6.5447H6.48113L6.35399 21.3435V21.2796V21.2157V21.1518V21.0879V21.024L6.41756 20.9601L6.48113 20.8962L6.5447 20.8323L6.60826 20.7684L6.67183 20.7045L6.7354 20.6406C6.79897 20.5767 6.86254 20.5767 6.92611 20.5128L6.98968 20.4489C7.05325 20.4489 7.11681 20.385 7.18038 20.385C7.68893 20.1932 7.81607 19.682 7.7525 19.1708C7.7525 19.043 7.68893 18.9152 7.68893 18.7874C7.68893 18.7874 7.68893 18.7235 7.68893 18.6596V18.5957V18.4679V18.404V18.2762V18.2123C7.68893 18.1484 7.68893 18.0845 7.62536 18.0206C7.62536 17.9567 7.62536 17.8927 7.56179 17.8288V17.7649L7.49823 17.6371L7.43466 17.5093L7.37109 17.4454L7.24395 17.2537L7.18038 17.1898C7.11681 17.1259 7.05325 17.1259 6.98968 17.062H6.92611H6.86254H6.7354H6.60826H6.35399H6.29042C6.22685 17.062 6.16328 17.1259 6.09971 17.1898C6.03615 17.2537 5.90901 17.3176 5.84544 17.3815L5.7183 17.4454C5.65473 17.5093 5.59116 17.5732 5.5276 17.6371L5.40046 17.7649L5.27332 17.8928C5.08261 18.0206 4.95548 18.2123 4.76477 18.3401C4.57407 18.4679 4.44693 18.6596 4.25622 18.7874L4.12908 18.9152C3.93838 19.1069 3.81124 19.2347 3.6841 19.4264C3.62053 19.6181 3.55697 19.8737 3.4934 20.0654C3.4934 20.1293 3.42983 20.1932 3.42983 20.3211C3.36626 20.5128 3.36626 20.6406 3.36626 20.8323C3.36626 20.8962 3.36626 20.9601 3.36626 21.024C3.30269 21.4713 3.23912 21.9186 3.23912 22.3659V22.4937V22.6855C3.23912 22.7494 3.23912 22.8133 3.23912 22.8772V23.1967C3.23912 23.3884 3.23912 23.5162 3.23912 23.7079V23.8357V23.9635C3.23912 24.1552 3.30269 24.3469 3.30269 24.5386V24.6664C3.30269 24.8581 3.36626 25.1138 3.42983 25.3055C3.42983 25.2416 3.17555 24.7942 2.98485 24.1552C2.92128 24.0913 2.92128 23.9635 2.85771 23.8996L2.79414 23.7718C2.73057 23.7079 2.73057 23.644 2.667 23.5162V23.4523C2.60344 23.3245 2.53987 23.1967 2.4763 23.005C2.41273 22.8772 2.34916 22.7494 2.28559 22.6215C2.28559 22.5576 2.22202 22.4937 2.22202 22.3659L2.15845 22.2381V22.1742V22.1103V22.0464V21.9825V21.9186V21.8547C2.15845 21.7908 2.09489 21.7269 2.09489 21.663L2.03132 21.5352V21.4713L1.90418 21.2796L1.84061 21.1518V21.0879C1.84061 20.9601 1.77704 20.8323 1.71347 20.6406C1.71347 20.5767 1.6499 20.5128 1.6499 20.4489C1.58634 20.1932 1.52277 19.8737 1.4592 19.5542C1.4592 19.4264 1.39563 19.2986 1.39563 19.1708C1.33206 18.9152 1.33206 18.6596 1.26849 18.404C1.26849 18.2762 1.20492 18.2123 1.20492 18.0845C1.20492 18.0206 1.20492 17.9567 1.20492 17.8928C1.20492 17.8288 1.20492 17.701 1.14135 17.6371C1.14135 17.5093 1.07779 17.3815 1.07779 17.2537C1.07779 17.1898 1.07779 17.062 1.07779 16.9981C1.07779 16.9342 1.07779 16.8064 1.07779 16.6786C1.07779 16.5508 1.07779 16.423 1.07779 16.2952C1.01422 16.1035 0.950649 15.9757 0.950649 15.784Z" fill="white"/>
<path d="M17.0973 32.5265C17.4787 32.5265 17.8601 32.4626 18.1779 32.3987C18.5594 32.3348 18.8772 32.2709 19.2586 32.207C19.9579 32.0153 20.6571 31.7597 21.3564 31.4401L21.42 31.3762V31.3123C21.4835 30.9928 21.5471 30.6733 21.5471 30.3538C21.5471 30.0343 21.6107 29.7148 21.6107 29.3953C21.5471 29.7148 21.4835 30.0343 21.3564 30.3538C21.2928 30.6094 21.2292 30.9289 21.1021 31.1845C20.4664 31.3762 19.7672 31.5679 19.1315 31.6958C18.8136 31.7597 18.4322 31.8236 18.0508 31.8875C17.7965 31.8875 17.4787 31.9514 17.0973 31.9514C16.6523 31.8236 16.2073 31.7597 15.7623 31.5679C15.3174 31.4401 14.8724 31.2484 14.4274 31.1206C13.9824 30.9928 13.5374 30.8011 13.0925 30.6094C12.6475 30.4177 12.2661 30.226 11.8211 30.0343C11.7575 29.9065 11.7575 29.7148 11.6939 29.587C11.6304 29.3953 11.6304 29.2675 11.6304 29.0757C11.6304 29.2675 11.6304 29.3953 11.6304 29.587C11.6304 29.7787 11.6304 29.9065 11.6304 30.0982V30.1621H11.6939C12.0754 30.4177 12.5203 30.6733 12.9653 30.9289C13.4103 31.1845 13.8553 31.3762 14.3003 31.5679C14.7452 31.7597 15.1902 31.9514 15.6988 32.0792C16.1437 32.207 16.6523 32.3348 17.0973 32.4626V32.5265Z" fill="white"/>
<path d="M27.8404 25.625C27.459 26.1362 27.0775 26.6474 26.6961 27.1586C26.3147 27.6699 25.8697 28.1172 25.3612 28.5645C24.9798 28.9479 24.5348 29.3313 24.0898 29.7147C24.0898 29.6508 24.0898 29.5869 24.0898 29.4591C24.0898 29.3313 24.0898 29.1396 24.0898 29.0118C24.0262 29.1396 24.0262 29.3313 23.9627 29.4591C23.8991 29.5869 23.8991 29.7786 23.8991 29.9064V30.0343L24.0898 29.9064C24.6619 29.5869 25.1705 29.2035 25.679 28.8201C26.1876 28.3728 26.6326 27.9255 27.0775 27.4142C27.5225 26.903 27.8404 26.3918 28.1582 25.8167C28.4761 25.2416 28.7303 24.6664 28.921 24.0274C28.5396 24.5386 28.2218 25.1137 27.8404 25.625Z" fill="white"/>
<path d="M30.0653 17.1898C30.0653 17.5093 30.0653 17.8928 30.0653 18.2123C30.0653 18.5318 30.0017 18.9152 30.0017 19.2347C29.9382 19.5542 29.9382 19.9376 29.8746 20.2572C29.811 20.5767 29.7474 20.8323 29.6839 21.1518C29.4296 21.2157 29.1118 21.3435 28.8575 21.4074C28.6032 21.4713 28.3489 21.5352 28.0947 21.5352C27.9675 21.2157 27.904 20.8962 27.7768 20.5767C27.6497 20.1933 27.459 19.8098 27.2683 19.4264C27.0776 19.043 26.8869 18.7235 26.6326 18.3401C26.4419 18.0206 26.1876 17.701 25.9333 17.4454C25.9969 17.062 26.0605 16.6147 26.124 16.2313C26.1876 15.784 26.2512 15.3366 26.2512 14.8893C26.3147 14.442 26.3147 13.9947 26.3147 13.5474C26.3147 13.1001 26.3147 12.6527 26.3147 12.2054C26.2512 12.6527 26.1876 13.1001 26.1876 13.5474C26.124 13.9947 26.0605 14.442 25.9969 14.8893C25.9333 15.3366 25.8698 15.784 25.8062 16.1674C25.7426 16.6147 25.6155 17.062 25.5519 17.4454V17.5732L25.6155 17.6371C25.8698 17.9567 26.0605 18.2762 26.3147 18.5957C26.569 18.9152 26.6961 19.2986 26.8869 19.6181C27.0776 20.0015 27.2047 20.3211 27.3954 20.7045C27.5225 21.0879 27.6497 21.4713 27.7768 21.8547L27.8404 22.0464H28.0311C28.3489 21.9825 28.6668 21.9186 28.9846 21.8547C29.3025 21.7908 29.6203 21.663 29.9382 21.5352L30.0653 21.4713V21.4074C30.1289 21.0879 30.1924 20.7045 30.1924 20.385C30.256 20.0654 30.256 19.682 30.256 19.3625C30.256 19.043 30.256 18.6596 30.256 18.3401C30.1924 17.8928 30.1289 17.5093 30.0653 17.1898Z" fill="white"/>
<path d="M17.1609 6.07075C17.1609 6.26246 17.2244 6.45417 17.288 6.64588C17.4151 7.02929 17.6058 7.34881 17.9237 7.60442C18.3687 8.05174 18.9408 8.30735 19.64 8.30735C20.085 8.30735 20.4664 8.17954 20.8478 7.98783C21.6107 7.54052 22.1192 6.77368 22.1192 5.81514C22.1192 4.47319 21.0385 3.32294 19.7036 3.32294C19.1951 3.32294 18.7501 3.45074 18.3051 3.77026C17.6694 4.21758 17.2244 4.98441 17.2244 5.81514V5.87905C17.1609 6.00685 17.1609 6.07075 17.1609 6.07075ZM17.9873 5.75124C17.9873 4.8566 18.7501 4.15367 19.64 4.15367C19.7036 4.15367 19.7672 4.15367 19.8307 4.15367C20.6571 4.21758 21.2928 4.92051 21.2928 5.81514C21.2928 6.58198 20.7207 7.28491 20.0214 7.41271C19.8943 7.41271 19.7672 7.47661 19.7036 7.47661C19.5129 7.47661 19.3858 7.47661 19.1951 7.41271C18.7501 7.28491 18.3687 6.96539 18.178 6.51807C18.1144 6.32636 18.0508 6.13466 18.0508 5.94295V5.75124H17.9873Z" fill="white"/>
<path d="M18.8772 6.83756C19.195 6.83756 19.5129 6.58195 19.5129 6.19854C19.5129 5.87902 19.2586 5.55951 18.8772 5.55951H18.8136C18.75 5.55951 18.6865 5.62341 18.6229 5.62341H18.5593H18.4958C18.4322 5.68731 18.3686 5.75122 18.3051 5.87902V5.94293V6.00683V6.07073V6.13463C18.3051 6.58195 18.5593 6.83756 18.8772 6.83756Z" fill="white"/>
<path d="M24.7255 8.94637C24.9162 8.94637 25.1069 8.75466 25.1069 8.56295C25.1069 8.37124 24.9162 8.17953 24.7255 8.17953C24.5348 8.17953 24.3441 8.37124 24.3441 8.56295C24.3441 8.81856 24.5348 8.94637 24.7255 8.94637Z" fill="white"/>
<path d="M42.4612 3.51465H36.4222L37.0579 4.53709L34.833 16.6147H40.1092C40.6177 16.6147 41.0627 16.2313 41.1263 15.7201L41.8891 11.183C41.9527 10.7996 41.8891 10.3522 41.762 10.0327C42.0162 9.71321 42.2069 9.26589 42.3341 8.88248L43.0969 4.34538C43.224 3.89806 42.9062 3.51465 42.4612 3.51465ZM39.2828 14.6337H37.185L37.8207 11.0552H39.9185C39.982 11.0552 40.0456 11.1191 39.982 11.183L39.4099 14.5698C39.4099 14.6337 39.3463 14.6337 39.2828 14.6337ZM40.2363 9.07418H38.1385L38.7742 5.49563H40.872C40.9356 5.49563 40.9991 5.55954 40.9356 5.62344L40.3634 9.01028C40.3634 9.07418 40.2999 9.07418 40.2363 9.07418Z" fill="white"/>
<path d="M44.0504 3.51465L44.6861 4.53709L42.5883 16.6147H44.4954L45.2582 12.0776H47.4831L46.7203 16.6147H48.6909L50.8522 4.40929C50.9158 3.89806 50.598 3.51465 50.153 3.51465H44.0504ZM46.466 5.49563H48.5638C48.6273 5.49563 48.6909 5.55954 48.6273 5.62344L47.8009 10.1605H45.576L46.466 5.49563Z" fill="white"/>
<path d="M52.8865 14.6337H57.082L56.0649 16.6147H50.598L52.6958 4.53709L52.1237 3.51465H54.8571L52.8865 14.6337Z" fill="white"/>
<path d="M59.879 14.6337H64.011L63.0575 16.6147H57.527L59.6247 4.53709L59.0526 3.51465H61.7861L59.879 14.6337Z" fill="white"/>
<path d="M40.5541 19.2991L40.0456 22.0469L37.9478 22.6859L38.3292 20.5132C38.3292 20.4493 38.3292 20.3854 38.2657 20.3854H36.295C36.2315 20.3854 36.1679 20.4493 36.1679 20.5132L34.5787 29.4596C34.5787 29.5235 34.5787 29.5874 34.6423 29.5874H36.6129C36.6764 29.5874 36.74 29.5235 36.74 29.4596L37.1214 27.223L36.295 27.4786L36.6129 25.4976L39.537 24.603L38.5199 30.6738C38.4564 31.185 37.9478 31.5684 37.5028 31.5684H33.1166C32.6081 31.5684 32.2902 31.185 32.4173 30.6738L34.388 19.2991C34.4515 18.7879 34.9601 18.4044 35.4051 18.4044H39.7913C40.2999 18.4044 40.6177 18.7879 40.5541 19.2991Z" fill="white"/>
<path d="M44.3683 20.3849L43.7326 23.9635H46.2753L45.2582 25.9445H43.3512L42.7155 29.5869H46.911L45.9575 31.5679H40.427L42.5248 19.4903L41.9527 18.404H48.8816L47.8645 20.3849H44.3683Z" fill="white"/>
<path d="M56.3192 19.2986L55.8106 22.2381L53.7129 22.8771L54.1578 20.4488C54.1578 20.3849 54.1578 20.321 54.0943 20.321H52.1236C52.0601 20.321 51.9965 20.3849 51.9965 20.4488L50.4073 29.3952C50.4073 29.4591 50.4073 29.523 50.4709 29.523H52.4415C52.5051 29.523 52.5686 29.4591 52.5686 29.3952L53.0136 26.6474L54.9207 26.9669L54.285 30.6094C54.2214 31.1206 53.7129 31.504 53.2679 31.504H48.8816C48.3731 31.504 48.0553 31.1206 48.1824 30.6094L50.153 19.2347C50.2166 18.7235 50.7251 18.3401 51.1701 18.3401H55.5564C56.0649 18.404 56.3828 18.7874 56.3192 19.2986Z" fill="white"/>
<path d="M65.2824 18.404L61.214 24.2191L62.9939 31.5679H60.8961L59.6248 26.4557L59.0526 27.3503L58.2898 31.5679H56.3192L58.4805 19.4903L57.8448 18.404H60.5783L59.7519 23.1328L63.0575 18.404H65.2824Z" fill="white"/>
<path d="M71.9571 18.404H67.5708C67.0623 18.404 66.6173 18.7874 66.5537 19.2986L64.5195 30.6733C64.456 31.1845 64.7738 31.5679 65.2188 31.5679H69.605C70.1136 31.5679 70.5586 31.1845 70.6221 30.6733L72.5928 19.2986C72.7835 18.7874 72.4656 18.404 71.9571 18.404ZM68.7786 29.5869H66.808C66.7444 29.5869 66.6809 29.523 66.7444 29.4591L68.3337 20.5127C68.3337 20.4488 68.3972 20.3849 68.4608 20.3849H70.4314C70.495 20.3849 70.5586 20.4488 70.495 20.5127L68.9058 29.4591C68.9058 29.523 68.8422 29.5869 68.7786 29.5869Z" fill="white"/>
<path d="M75.3898 18.7235V20.3849H74.8812V18.7235H74.2455V18.2762H76.0255V18.7235H75.3898Z" fill="white"/>
<path d="M77.9325 20.3849V19.043L77.424 20.1932H77.1061L76.5976 19.043V20.3849H76.1526V18.2762H76.7247L77.2969 19.4903L77.869 18.2762H78.4411V20.3849H77.9325Z" fill="white"/>
</svg>
