<svg width="11" height="12" viewBox="0 0 11 12" fill="none" xmlns="http://www.w3.org/2000/svg">
<path d="M10.5245 0.830852C10.2623 0.561772 9.8743 0.461527 9.5125 0.567048L1.0758 3.02042C0.694079 3.12647 0.423518 3.4309 0.350634 3.81764C0.276177 4.21123 0.536252 4.71088 0.876027 4.91981L3.514 6.54115C3.78456 6.70735 4.13378 6.66567 4.35767 6.43985L7.37842 3.4003C7.53048 3.24202 7.78216 3.24202 7.93422 3.4003C8.08628 3.55331 8.08628 3.80128 7.93422 3.95957L4.90823 6.99964C4.68381 7.22493 4.64187 7.57579 4.80703 7.84803L6.41887 10.5125C6.60763 10.829 6.93272 11.0084 7.28928 11.0084C7.33123 11.0084 7.37842 11.0084 7.42036 11.0031C7.82935 10.9504 8.15445 10.6707 8.27505 10.275L10.7762 1.84913C10.8863 1.49036 10.7867 1.09993 10.5245 0.830852Z" fill="white"/>
</svg>
