<svg width="23" height="24" viewBox="0 0 23 24" fill="none" xmlns="http://www.w3.org/2000/svg">
<path d="M9.12547 8.70666C9.12547 9.48202 8.49691 10.1106 7.72155 10.1106C6.94619 10.1106 6.31763 9.48202 6.31763 8.70666C6.31763 7.93129 6.94619 7.30274 7.72155 7.30274C8.49691 7.30274 9.12547 7.93129 9.12547 8.70666Z" fill="#808191"/>
<path d="M14.7411 10.1106C15.5165 10.1106 16.1451 9.48202 16.1451 8.70666C16.1451 7.93129 15.5165 7.30274 14.7411 7.30274C13.9658 7.30274 13.3372 7.93129 13.3372 8.70666C13.3372 9.48202 13.9658 10.1106 14.7411 10.1106Z" fill="#808191"/>
<path d="M11.2313 17.1302C13.9451 17.1302 16.1451 14.9302 16.1451 12.2165H17.549C17.549 15.7056 14.7205 18.5341 11.2313 18.5341C7.74221 18.5341 4.91371 15.7056 4.91371 12.2165H6.31763C6.31763 14.9302 8.51757 17.1302 11.2313 17.1302Z" fill="#808191"/>
<path fill-rule="evenodd" clip-rule="evenodd" d="M0 12.2165C0 6.01354 5.02844 0.985107 11.2313 0.985107C17.4342 0.985107 22.4627 6.01354 22.4627 12.2165C22.4627 18.4194 17.4342 23.4478 11.2313 23.4478C5.02844 23.4478 0 18.4194 0 12.2165ZM1.40392 12.2165C1.40392 17.644 5.8038 22.0439 11.2313 22.0439C16.6589 22.0439 21.0588 17.644 21.0588 12.2165C21.0588 6.7889 16.6589 2.38903 11.2313 2.38903C5.8038 2.38903 1.40392 6.7889 1.40392 12.2165Z" fill="#808191"/>
</svg>
