<svg width="19" height="24" viewBox="0 0 19 24" fill="none" xmlns="http://www.w3.org/2000/svg">
<path d="M18.5036 19.2562L17.4608 6.11603C17.3958 5.26946 16.6799 4.60629 15.8309 4.60629H13.7711V4.51371C13.7711 2.02483 11.7463 0 9.25741 0C6.76853 0 4.7437 2.02483 4.7437 4.51371V4.60629H2.68398C1.83491 4.60629 1.11893 5.26942 1.05416 6.11425L0.0110334 19.258C-0.0696914 20.3104 0.295395 21.3581 1.01261 22.1324C1.72983 22.9067 2.74656 23.3509 3.80205 23.3509H14.7127C15.7682 23.3509 16.7849 22.9068 17.5022 22.1324C18.2194 21.3581 18.5845 20.3104 18.5036 19.2562ZM6.11146 4.51371C6.11146 2.77903 7.52278 1.36776 9.25741 1.36776C10.992 1.36776 12.4033 2.77908 12.4033 4.51371V4.60629H6.11146V4.51371ZM16.4987 21.203C16.0327 21.7061 15.3985 21.9832 14.7127 21.9832H3.80209C3.11634 21.9832 2.48213 21.7061 2.01611 21.203C1.55014 20.7 1.32238 20.0463 1.37474 19.3644L2.41777 6.2206C2.42836 6.08232 2.54529 5.97405 2.68398 5.97405H4.7437V7.65855C4.7437 8.03623 5.04991 8.34244 5.42758 8.34244C5.80525 8.34244 6.11146 8.03623 6.11146 7.65855V5.97405H12.4033V7.65855C12.4033 8.03623 12.7096 8.34244 13.0872 8.34244C13.4649 8.34244 13.7711 8.03623 13.7711 7.65855V5.97405H15.8309C15.9695 5.97405 16.0865 6.08237 16.0972 6.22243L17.14 19.3626C17.1925 20.0463 16.9647 20.6999 16.4987 21.203Z" fill="white" fill-opacity="0.5"/>
</svg>
