<svg width="13" height="14" viewBox="0 0 13 14" fill="none" xmlns="http://www.w3.org/2000/svg">
<path d="M5.84767 12.2306H1.5469C1.40731 12.2306 1.28003 12.1627 1.1977 12.0444C1.1155 11.9261 1.09275 11.7782 1.13551 11.6387C1.6159 10.0727 3.08157 8.97915 4.69974 8.97915C5.45237 8.97915 6.17499 9.21668 6.78961 9.66622C7.04169 9.85056 7.38872 9.78582 7.5647 9.52139C7.74054 9.25711 7.67864 8.89328 7.42656 8.70894C7.13997 8.49937 6.83527 8.32582 6.51752 8.18828C6.94384 7.7503 7.22608 7.15928 7.2829 6.50078C7.96682 5.81052 8.85961 5.43241 9.81605 5.43241C10.5687 5.43241 11.2913 5.6701 11.9059 6.11948C12.158 6.30382 12.505 6.23908 12.6809 5.97465C12.8567 5.71037 12.7949 5.34655 12.5427 5.16221C12.2561 4.95264 11.9514 4.77908 11.6337 4.64155C12.1125 4.14976 12.4102 3.46498 12.4102 2.70846C12.4102 1.21502 11.2514 0 9.82692 0C8.40242 0 7.24347 1.21502 7.24347 2.70846C7.24347 3.46042 7.53759 4.14171 8.01132 4.63288C7.68255 4.77346 7.36944 4.95294 7.07663 5.1695C6.67654 4.21511 5.76693 3.54674 4.71062 3.54674C3.28611 3.54674 2.12717 4.76176 2.12717 6.25519C2.12717 7.00594 2.42027 7.68632 2.89269 8.17734C1.57647 8.72596 0.514072 9.85254 0.0757183 11.2812C-0.0772128 11.7799 0.00381898 12.3086 0.297939 12.7318C0.592205 13.1551 1.04737 13.3978 1.5469 13.3978H5.84752C6.15498 13.3978 6.40416 13.1365 6.40416 12.8142C6.40416 12.492 6.15498 12.2306 5.84767 12.2306ZM9.82692 1.16715C10.6375 1.16715 11.2969 1.85847 11.2969 2.7083C11.2969 3.55813 10.6375 4.24961 9.82692 4.24961C9.01631 4.24961 8.3569 3.55813 8.3569 2.7083C8.3569 1.85847 9.01631 1.16715 9.82692 1.16715ZM4.71062 4.71389C5.52122 4.71389 6.18078 5.40521 6.18078 6.25519C6.18078 7.10502 5.52122 7.79635 4.71062 7.79635C3.90001 7.79635 3.24059 7.10502 3.24059 6.25519C3.24059 5.40521 3.90001 4.71389 4.71062 4.71389Z" fill="white"/>
</svg>
